<?xml version="1.0" encoding="utf-8"?>
<!-- Generator: Fusion 360, Shaper Origin Export Add-In, Version 1.8.0  -->
<svg xmlns="http://www.w3.org/2000/svg" xmlns:xlink="http://www.w3.org/1999/xlink" xmlns:shaper="http://www.shapertools.com/namespaces/shaper" shaper:fusionaddin="version:1.8.0" width="21.85cm" height="4.025cm" version="1.1" x="0cm" y="0cm" viewBox="0 0 21.85 4.025" enable-background="new 0 0 21.85 4.025" xml:space="preserve"><path d="M10.925,2.0125 L-10.925,2.0125 -10.925,-2.0125 10.925,-2.0125 10.925,2.0125z" transform="matrix(1,0,0,-1,10.925,2.0125)" fill="rgb(0,0,0)" shaper:cutDepth="0.3cm" stroke-linecap="round" stroke-linejoin="round" /><path d="M-5.9464021,-1.4159862 L-5.9464021,-1.4159862 -5.9387851,-1.4011528 -5.9302612,-1.3869327 -5.9202292,-1.3737326 -5.9092943,-1.3611431 -5.9092943,-1.3611431 -5.8975752,-1.3503415 -5.8851923,-1.340501 -5.8716734,-1.3323056 -5.8574526,-1.3251268 -5.8574526,-1.3251268 -5.8364672,-1.3181472 -5.8258738,-1.3151916 -5.8151596,-1.3128766 -5.7933421,-1.3103118 -5.7712315,-1.3093014 -5.7712315,-1.3093014 -5.7514174,-1.3107653 -5.7318699,-1.3128988 -5.7128558,-1.3163716 -5.703632,-1.3188195 -5.6946416,-1.3218533 -5.6859145,-1.3255482 -5.6774405,-1.3298789 -5.6611087,-1.3400874 -5.6453567,-1.351752 -5.6298946,-1.3641445 -5.6298946,-1.3641445 -5.6175464,-1.3811348 -5.6059622,-1.3984034 -5.5959061,-1.4162286 -5.5916899,-1.4254368 -5.5881373,-1.4348868 -5.5852484,-1.4445785 -5.5829426,-1.4544826 -5.5797472,-1.4748066 -5.5778847,-1.4956161 -5.5766886,-1.5166683 -5.5766886,-1.5166683 -5.5778813,-1.5375835 -5.5797328,-1.55826 -5.5829023,-1.5784592 -5.5851871,-1.5883052 -5.5880486,-1.5979425 -5.591566,-1.6073421 -5.5957386,-1.6165046 -5.6056855,-1.6342493 -5.6171403,-1.651448 -5.6293488,-1.6683737 -5.6293488,-1.6683737 -5.6447526,-1.6807114 -5.6604451,-1.6923236 -5.6767151,-1.7024846 -5.6851569,-1.7067942 -5.6938508,-1.71047 -5.7028067,-1.7134876 -5.7119947,-1.7159218 -5.7309344,-1.7193736 -5.7504046,-1.7214921 -5.7701401,-1.7229439 -5.7701401,-1.7229439 -5.7899941,-1.7215348 -5.8095857,-1.7194598 -5.8286526,-1.7160527 -5.8379073,-1.7136416 -5.8469325,-1.7106477 -5.8556981,-1.7069951 -5.8642123,-1.7027044 -5.880629,-1.6925699 -5.8964699,-1.6809737 -5.9120228,-1.6686465 -5.9120228,-1.6686465 -5.9241925,-1.6519292 -5.9356154,-1.6349391 -5.9455445,-1.6174032 -5.9497155,-1.6083453 -5.953237,-1.5990501 -5.9561048,-1.5895162 -5.9583978,-1.5797722 -5.9615879,-1.5597743 -5.963464,-1.5392963 -5.9646831,-1.5185783 -5.9646831,-1.5185783 -5.9636797,-1.4922655 -5.9626009,-1.4792166 -5.9608297,-1.4662969 -5.9581629,-1.453544 -5.9546912,-1.4409411 -5.9464021,-1.4159862z M-5.8500856,-1.6189876 L-5.8500856,-1.6189876 -5.8328603,-1.6338321 -5.823786,-1.6402061 -5.8141575,-1.6453224 -5.8038575,-1.6489139 -5.7930122,-1.6512678 -5.770413,-1.6539126 -5.770413,-1.6539126 -5.7479521,-1.6513245 -5.7371746,-1.6490035 -5.7269405,-1.6454502 -5.7173781,-1.640374 -5.7083718,-1.6340368 -5.6912862,-1.6192605 -5.6912862,-1.6192605 -5.6767465,-1.5952955 -5.6707335,-1.5829114 -5.6662167,-1.5700495 -5.6632911,-1.5566793 -5.6615799,-1.5429212 -5.6601811,-1.5147584 -5.6601811,-1.5147584 -5.6614971,-1.4871214 -5.6631449,-1.4736176 -5.6659803,-1.4604914 -5.6703747,-1.4478609 -5.6762449,-1.4356996 -5.6904676,-1.4121663 -5.6904676,-1.4121663 -5.7077853,-1.397512 -5.7169087,-1.3912635 -5.7265895,-1.3863091 -5.7369308,-1.382888 -5.7477988,-1.38069 -5.770413,-1.3783328 -5.770413,-1.3783328 -5.7932007,-1.380778 -5.8041478,-1.3830314 -5.8145589,-1.3865219 -5.8243006,-1.391557 -5.8334805,-1.3978884 -5.8509041,-1.412712 -5.8509041,-1.412712 -5.8652385,-1.4363619 -5.8711577,-1.4485848 -5.8755926,-1.461281 -5.8784569,-1.4744779 -5.8801241,-1.4880565 -5.8814635,-1.5158498 -5.8814635,-1.5158498 -5.8799678,-1.5436944 -5.8782074,-1.5572882 -5.875232,-1.5704876 -5.8706692,-1.583172 -5.8646322,-1.595378 -5.8500856,-1.6189876z" transform="matrix(1,0,0,-1,10.925,2.0125)" fill="rgb(116,116,116)" fill-rule="nonzero" shaper:cutDepth="0.05cm" stroke-linecap="round" stroke-linejoin="round" /><path d="M-5.4334417,-1.3161226 L-5.4334417,-1.5327666 -5.4334417,-1.5327666 -5.4331507,-1.5662574 -5.432102,-1.5829531 -5.4304403,-1.5996151 -5.4304403,-1.5996151 -5.4267908,-1.6110554 -5.4217898,-1.6216546 -5.4184124,-1.6264085 -5.4145215,-1.6308427 -5.4058838,-1.6391786 -5.4058838,-1.6391786 -5.3934023,-1.6459185 -5.3869997,-1.6487312 -5.3804035,-1.6508781 -5.3666224,-1.653146 -5.3524049,-1.6539126 -5.3524049,-1.6539126 -5.3386094,-1.6533199 -5.325236,-1.6512682 -5.3188364,-1.6492502 -5.3126344,-1.646549 -5.3005632,-1.6399971 -5.3005632,-1.6399971 -5.2930906,-1.6326677 -5.2868101,-1.6246222 -5.282559,-1.6153578 -5.2795536,-1.605345 -5.2795536,-1.605345 -5.2765156,-1.5714505 -5.2760065,-1.537405 -5.2760065,-1.3161226 -5.1952425,-1.3161226 -5.1952425,-1.5262181 -5.1952425,-1.5262181 -5.1953222,-1.5517769 -5.1961514,-1.5772801 -5.1984147,-1.6026771 -5.201791,-1.6279917 -5.201791,-1.6279917 -5.2056993,-1.6415993 -5.2107618,-1.6546431 -5.2178046,-1.6667195 -5.2260748,-1.6781963 -5.2260748,-1.6781963 -5.2364427,-1.688316 -5.2475803,-1.6973449 -5.2599406,-1.7046407 -5.2730052,-1.7109385 -5.2730052,-1.7109385 -5.291814,-1.7165146 -5.3108748,-1.7205721 -5.330309,-1.722379 -5.3499492,-1.7229439 -5.3499492,-1.7229439 -5.3721762,-1.7225022 -5.3941707,-1.720651 -5.4050091,-1.7187618 -5.4157335,-1.7161814 -5.4369888,-1.7098471 -5.4369888,-1.7098471 -5.4500182,-1.7030843 -5.4623263,-1.6953536 -5.4733813,-1.6859408 -5.4836464,-1.6754678 -5.4836464,-1.6754678 -5.4910307,-1.6652175 -5.4974989,-1.6545054 -5.502388,-1.6429972 -5.506293,-1.630993 -5.506293,-1.630993 -5.5101765,-1.6057822 -5.5128855,-1.5804701 -5.5139775,-1.5550185 -5.5142058,-1.5294924 -5.5142058,-1.3161226 -5.4334417,-1.3161226z" transform="matrix(1,0,0,-1,10.925,2.0125)" fill="rgb(116,116,116)" fill-rule="nonzero" shaper:cutDepth="0.05cm" stroke-linecap="round" stroke-linejoin="round" /><path d="M-1.517677,-1.3161226 L-1.4369131,-1.3161226 -1.4369131,-1.7161226 -1.517677,-1.7161226 -1.517677,-1.3161226z" transform="matrix(1,0,0,-1,10.925,2.0125)" fill="rgb(116,116,116)" fill-rule="nonzero" shaper:cutDepth="0.05cm" stroke-linecap="round" stroke-linejoin="round" /><path d="M-0.2115377,-1.3161226 L0.0850514,-1.3161226 0.0850514,-1.3837898 -0.1307739,-1.3837898 -0.1307739,-1.4724664 0.0700447,-1.4724664 0.0700447,-1.5398607 -0.1307739,-1.5398607 -0.1307739,-1.6487284 0.0926913,-1.6487284 0.0926913,-1.7161226 -0.2115377,-1.7161226 -0.2115377,-1.3161226z" transform="matrix(1,0,0,-1,10.925,2.0125)" fill="rgb(116,116,116)" fill-rule="nonzero" shaper:cutDepth="0.05cm" stroke-linecap="round" stroke-linejoin="round" /><path d="M-0.4628337,-1.3837898 L-0.5815242,-1.3837898 -0.5815242,-1.3161226 -0.2636524,-1.3161226 -0.2636524,-1.3837898 -0.3820699,-1.3837898 -0.3820699,-1.7161226 -0.4628337,-1.7161226 -0.4628337,-1.3837898z" transform="matrix(1,0,0,-1,10.925,2.0125)" fill="rgb(116,116,116)" fill-rule="nonzero" shaper:cutDepth="0.05cm" stroke-linecap="round" stroke-linejoin="round" /><path d="M2.884877,-1.3161226 L3.1814663,-1.3161226 3.1814663,-1.3837898 2.965641,-1.3837898 2.965641,-1.4724664 3.1664595,-1.4724664 3.1664595,-1.5398607 2.965641,-1.5398607 2.965641,-1.6487284 3.1891062,-1.6487284 3.1891062,-1.7161226 2.884877,-1.7161226 2.884877,-1.3161226z" transform="matrix(1,0,0,-1,10.925,2.0125)" fill="rgb(116,116,116)" fill-rule="nonzero" shaper:cutDepth="0.05cm" stroke-linecap="round" stroke-linejoin="round" /><path d="M4.6466777,-1.3161226 L4.6466777,-1.3161226 4.6658933,-1.3163641 4.6850175,-1.3174328 4.7039716,-1.3200438 4.7228033,-1.3237625 4.7228033,-1.3237625 4.7395806,-1.3301859 4.7476794,-1.3338718 4.7554304,-1.3381269 4.7627557,-1.3430785 4.7697321,-1.348601 4.7831034,-1.3605974 4.7831034,-1.3605974 4.7951038,-1.3753805 4.8057395,-1.3909719 4.8141664,-1.4078717 4.8213026,-1.425536 4.8213026,-1.425536 4.8272811,-1.4487437 4.831687,-1.4721804 4.8337091,-1.4959645 4.8343994,-1.5199426 4.8343994,-1.5199426 4.8336921,-1.5415792 4.8317549,-1.5630313 4.8276419,-1.5841573 4.8221211,-1.6050722 4.8221211,-1.6050722 4.8142521,-1.6244821 4.8098486,-1.6338992 4.8048821,-1.642971 4.7992011,-1.6516044 4.7929043,-1.6598599 4.7792835,-1.6757407 4.7792835,-1.6757407 4.7664092,-1.6860175 4.7527825,-1.6949798 4.7379876,-1.7019008 4.7225303,-1.7076643 4.7225303,-1.7076643 4.7048966,-1.711652 4.6871208,-1.7145214 4.6691385,-1.715766 4.6510434,-1.7161226 4.4990651,-1.7161226 4.4990651,-1.3161226 4.6466777,-1.3161226z M4.5798292,-1.6487284 L4.6401293,-1.6487284 4.6401293,-1.6487284 4.6646687,-1.6481603 4.6768467,-1.6468442 4.6889698,-1.6449085 4.6889698,-1.6449085 4.6978072,-1.642135 4.7062627,-1.6386257 4.7140577,-1.6338436 4.7214391,-1.6282645 4.7214391,-1.6282645 4.728563,-1.6196822 4.7346074,-1.6104799 4.7390902,-1.6003807 4.7427215,-1.5897925 4.7427215,-1.5897925 4.7466069,-1.5716646 4.7493884,-1.5534039 4.7505801,-1.5349518 4.7509069,-1.5163955 4.7509069,-1.5163955 4.7506299,-1.4983693 4.7494724,-1.480454 4.7466791,-1.4627444 4.7427215,-1.4451813 4.7427215,-1.4451813 4.738616,-1.4345159 4.733664,-1.4243608 4.7272159,-1.4151075 4.7198019,-1.4064364 4.7198019,-1.4064364 4.7113721,-1.3999342 4.7024297,-1.3944375 4.6926643,-1.3905551 4.6824212,-1.3876097 4.6824212,-1.3876097 4.6659207,-1.3855589 4.6493707,-1.3842301 4.6161184,-1.3837898 4.5798292,-1.3837898 4.5798292,-1.6487284z" transform="matrix(1,0,0,-1,10.925,2.0125)" fill="rgb(116,116,116)" fill-rule="nonzero" shaper:cutDepth="0.05cm" stroke-linecap="round" stroke-linejoin="round" /><path d="M4.0966095,-1.3161226 L4.1751906,-1.3161226 4.3389015,-1.5832441 4.3389015,-1.3161226 4.4139356,-1.3161226 4.4139356,-1.7161226 4.3328988,-1.7161226 4.1716437,-1.4552768 4.1716437,-1.7161226 4.0966095,-1.7161226 4.0966095,-1.3161226z" transform="matrix(1,0,0,-1,10.925,2.0125)" fill="rgb(116,116,116)" fill-rule="nonzero" shaper:cutDepth="0.05cm" stroke-linecap="round" stroke-linejoin="round" /><path d="M8.4349609,-1.5783327 L8.4349609,-1.5783327 8.4387788,-1.5945785 8.4412232,-1.6024266 8.4443101,-1.6099449 8.4482343,-1.6170335 8.4529292,-1.6237266 8.4636102,-1.6364501 8.4636102,-1.6364501 8.4770516,-1.6447984 8.4839924,-1.6483058 8.4911966,-1.6510148 8.4986973,-1.6528257 8.506428,-1.6539393 8.5222732,-1.655004 8.5222732,-1.655004 8.5379568,-1.6542976 8.5456376,-1.653409 8.5531254,-1.6518777 8.5603595,-1.6495028 8.5673532,-1.646328 8.5809362,-1.6386329 8.5809362,-1.6386329 8.5889888,-1.6304849 8.592508,-1.626157 8.5954186,-1.6215246 8.5975561,-1.6165051 8.5990265,-1.6111518 8.6008544,-1.599888 8.6008544,-1.599888 8.6002563,-1.5933432 8.5988456,-1.5870889 8.5960478,-1.5813304 8.592396,-1.5758771 8.592396,-1.5758771 8.5860167,-1.5701574 8.5791214,-1.5652586 8.5714951,-1.5615225 8.5634737,-1.5584146 8.5634737,-1.5584146 8.5312861,-1.5491555 8.498808,-1.5409521 8.498808,-1.5409521 8.4744739,-1.5344598 8.4625453,-1.5306909 8.4509031,-1.5262948 8.4396408,-1.521066 8.4287652,-1.5149901 8.4076756,-1.5013887 8.4076756,-1.5013887 8.3923033,-1.4840671 8.3856589,-1.4749328 8.3802647,-1.4652304 8.3764156,-1.4548257 8.3738464,-1.4438395 8.3708408,-1.4208976 8.3708408,-1.4208976 8.3722274,-1.4057677 8.3734199,-1.3983525 8.3752116,-1.3911172 8.3777292,-1.3840996 8.3808357,-1.3772588 8.3880304,-1.3638716 8.3880304,-1.3638716 8.3983785,-1.3511076 8.4039238,-1.3451777 8.4099146,-1.3397905 8.4164339,-1.3350471 8.4233755,-1.330818 8.4379622,-1.3232168 8.4379622,-1.3232168 8.4571678,-1.3169682 8.4668617,-1.3143409 8.4766648,-1.3123086 8.4966129,-1.310109 8.5168162,-1.3093014 8.5168162,-1.3093014 8.5472491,-1.3107709 8.5621288,-1.3125811 8.5766043,-1.315682 8.5905498,-1.320475 8.6039961,-1.3268623 8.6300495,-1.3423164 8.6300495,-1.3423164 8.6467083,-1.3612872 8.6538861,-1.3713044 8.659682,-1.3819595 8.6638346,-1.3933735 8.6666728,-1.4053943 8.6701586,-1.4304473 8.5893946,-1.4339944 8.5893946,-1.4339944 8.5865746,-1.4214741 8.5847221,-1.4154484 8.5823387,-1.4097041 8.5792617,-1.4043274 8.5755412,-1.3992917 8.5670208,-1.3897925 8.5670208,-1.3897925 8.5551461,-1.3833368 8.5490432,-1.3806811 8.5427438,-1.3787045 8.5295787,-1.3767085 8.5159977,-1.3761499 8.5159977,-1.3761499 8.5014094,-1.3768595 8.4872352,-1.3790561 8.4804283,-1.3811603 8.4738084,-1.3839356 8.4608817,-1.390611 8.4608817,-1.390611 8.4554975,-1.3956971 8.4512969,-1.4013924 8.4490793,-1.4081086 8.4480577,-1.4154405 8.4480577,-1.4154405 8.4490982,-1.4224645 8.4512315,-1.4289574 8.4551316,-1.4345915 8.4600631,-1.4397243 8.4600631,-1.4397243 8.4776403,-1.4489256 8.4866408,-1.4529804 8.4958701,-1.4564455 8.5148755,-1.4619669 8.5342786,-1.4664637 8.5342786,-1.4664637 8.5566258,-1.4719811 8.5786832,-1.478344 8.6001979,-1.4862899 8.6213182,-1.495386 8.6213182,-1.495386 8.6343124,-1.5034444 8.6462567,-1.51264 8.6564279,-1.5237562 8.6655202,-1.5360408 8.6655202,-1.5360408 8.6727008,-1.5511067 8.675728,-1.5587873 8.6780806,-1.5666449 8.6796649,-1.5747039 8.6806493,-1.5829203 8.6816185,-1.5996151 8.6816185,-1.5996151 8.6800748,-1.6166671 8.6787485,-1.6250295 8.6767569,-1.6331954 8.6739596,-1.6411236 8.670509,-1.6488589 8.6625188,-1.664008 8.6625188,-1.664008 8.651429,-1.6780966 8.645467,-1.68464 8.6390046,-1.6905825 8.6319414,-1.6958035 8.6243944,-1.7004436 8.6084942,-1.7087556 8.6084942,-1.7087556 8.5872531,-1.7153462 8.5765382,-1.7181008 8.5657107,-1.7202089 8.5437107,-1.722447 8.5214547,-1.7232168 8.5214547,-1.7232168 8.490096,-1.7214942 8.4747737,-1.7195115 8.4598799,-1.7161833 8.4455448,-1.7111007 8.4317246,-1.704401 8.4049472,-1.6882918 8.4049472,-1.6882918 8.3859862,-1.6660504 8.3777258,-1.6543324 8.3709269,-1.6418988 8.3657846,-1.6286543 8.3619327,-1.614778 8.3563796,-1.5859726 8.4349609,-1.5783327z" transform="matrix(1,0,0,-1,10.925,2.0125)" fill="rgb(116,116,116)" fill-rule="nonzero" shaper:cutDepth="0.05cm" stroke-linecap="round" stroke-linejoin="round" /><path d="M-0.325,1.6625 a0.3,0.3 0 1,0 0.6,0 a0.3,0.3 0 1,0 -0.6,0z" transform="matrix(1,0,0,-1,10.925,2.0125)" fill="rgb(116,116,116)" fill-rule="nonzero" shaper:cutDepth="0.05cm" stroke-linecap="round" stroke-linejoin="round" /><path d="M8.875,-1.5575 a0.3,0.3 0 1,0 0.6,0 a0.3,0.3 0 1,0 -0.6,0z" transform="matrix(1,0,0,-1,10.925,2.0125)" fill="rgb(116,116,116)" fill-rule="nonzero" shaper:cutDepth="0.05cm" stroke-linecap="round" stroke-linejoin="round" /><path d="M-10.41,-1.5475 a0.3,0.3 0 1,0 0.6,0 a0.3,0.3 0 1,0 -0.6,0z" transform="matrix(1,0,0,-1,10.925,2.0125)" fill="rgb(116,116,116)" fill-rule="nonzero" shaper:cutDepth="0.05cm" stroke-linecap="round" stroke-linejoin="round" /><path d="M8.875,1.6625 a0.3,0.3 0 1,0 0.6,0 a0.3,0.3 0 1,0 -0.6,0z" transform="matrix(1,0,0,-1,10.925,2.0125)" fill="rgb(116,116,116)" fill-rule="nonzero" shaper:cutDepth="0.05cm" stroke-linecap="round" stroke-linejoin="round" /><path d="M-10.41,1.6625 a0.3,0.3 0 1,0 0.6,0 a0.3,0.3 0 1,0 -0.6,0z" transform="matrix(1,0,0,-1,10.925,2.0125)" fill="rgb(116,116,116)" fill-rule="nonzero" shaper:cutDepth="0.05cm" stroke-linecap="round" stroke-linejoin="round" /><path d="M7.9102678,-1.3161226 L8.0311409,-1.3161226 8.1037194,-1.588974 8.1754792,-1.3161226 8.2966253,-1.3161226 8.2966253,-1.7161226 8.2215911,-1.7161226 8.2215911,-1.4012523 8.1421914,-1.7161226 8.0644288,-1.7161226 7.9853019,-1.4012523 7.9853019,-1.7161226 7.9102678,-1.7161226 7.9102678,-1.3161226z" transform="matrix(1,0,0,-1,10.925,2.0125)" fill="rgb(116,116,116)" fill-rule="nonzero" shaper:cutDepth="0.05cm" stroke-linecap="round" stroke-linejoin="round" /><path d="M3.6630489,-1.4159862 L3.6630489,-1.4159862 3.6706659,-1.4011528 3.6791898,-1.3869327 3.6892218,-1.3737326 3.7001566,-1.3611431 3.7001566,-1.3611431 3.7118758,-1.3503414 3.7242586,-1.3405009 3.7377775,-1.3323056 3.7519984,-1.3251268 3.7519984,-1.3251268 3.7729837,-1.3181472 3.7835771,-1.3151916 3.7942913,-1.3128767 3.8161088,-1.3103118 3.8382194,-1.3093014 3.8382194,-1.3093014 3.8580335,-1.3107653 3.877581,-1.3128988 3.8965951,-1.3163716 3.9058189,-1.3188195 3.9148093,-1.3218533 3.9235365,-1.3255481 3.9320104,-1.3298789 3.9483422,-1.3400874 3.9640943,-1.351752 3.9795564,-1.3641445 3.9795564,-1.3641445 3.9919046,-1.3811348 4.0034888,-1.3984034 4.0135448,-1.4162286 4.0177611,-1.4254368 4.0213136,-1.4348868 4.0242026,-1.4445785 4.0265083,-1.4544826 4.0297037,-1.4748066 4.0315662,-1.4956161 4.0327622,-1.5166683 4.0327622,-1.5166683 4.0315696,-1.5375835 4.029718,-1.5582599 4.0265486,-1.5784591 4.0242637,-1.5883052 4.0214023,-1.5979425 4.0178848,-1.6073421 4.0137123,-1.6165046 4.0037654,-1.6342493 3.9923107,-1.651448 3.9801021,-1.6683737 3.9801021,-1.6683737 3.9646983,-1.6807114 3.9490058,-1.6923236 3.9327359,-1.7024846 3.9242941,-1.7067942 3.9156002,-1.71047 3.9066443,-1.7134876 3.8974563,-1.7159218 3.8785166,-1.7193736 3.8590464,-1.7214921 3.8393108,-1.7229439 3.8393108,-1.7229439 3.8194568,-1.7215348 3.7998652,-1.7194598 3.7807983,-1.7160527 3.7715436,-1.7136416 3.7625185,-1.7106478 3.7537529,-1.7069951 3.7452386,-1.7027044 3.7288219,-1.69257 3.7129811,-1.6809737 3.6974282,-1.6686465 3.6974282,-1.6686465 3.6852584,-1.6519292 3.6738356,-1.6349391 3.6639064,-1.6174032 3.6597354,-1.6083453 3.656214,-1.5990501 3.6533461,-1.5895162 3.6510531,-1.5797722 3.6478631,-1.5597743 3.645987,-1.5392963 3.6447678,-1.5185783 3.6447678,-1.5185783 3.6457712,-1.4922655 3.64685,-1.4792166 3.6486213,-1.4662968 3.6512881,-1.453544 3.6547598,-1.4409411 3.6630489,-1.4159862z M3.7593654,-1.6189876 L3.7593654,-1.6189876 3.7765906,-1.6338321 3.785665,-1.6402061 3.7952934,-1.6453224 3.8055935,-1.6489139 3.8164387,-1.6512678 3.839038,-1.6539126 3.839038,-1.6539126 3.8614988,-1.6513245 3.8722764,-1.6490035 3.8825105,-1.6454502 3.8920729,-1.640374 3.9010792,-1.6340368 3.9181648,-1.6192605 3.9181648,-1.6192605 3.9327045,-1.5952955 3.9387174,-1.5829114 3.9432343,-1.5700495 3.9461598,-1.5566793 3.9478711,-1.5429212 3.9492698,-1.5147584 3.9492698,-1.5147584 3.9479538,-1.4871214 3.9463061,-1.4736176 3.9434707,-1.4604914 3.9390763,-1.4478609 3.9332061,-1.4356996 3.9189834,-1.4121663 3.9189834,-1.4121663 3.9016657,-1.397512 3.8925423,-1.3912635 3.8828614,-1.3863091 3.8725202,-1.382888 3.8616521,-1.38069 3.839038,-1.3783328 3.839038,-1.3783328 3.8162502,-1.380778 3.8053031,-1.3830314 3.794892,-1.3865219 3.7851503,-1.391557 3.7759703,-1.3978884 3.7585468,-1.412712 3.7585468,-1.412712 3.7442124,-1.4363619 3.7382932,-1.4485848 3.7338583,-1.461281 3.7309941,-1.4744779 3.7293268,-1.4880565 3.7279875,-1.5158498 3.7279875,-1.5158498 3.7294831,-1.5436944 3.7312435,-1.5572882 3.7342189,-1.5704877 3.7387817,-1.583172 3.7448187,-1.595378 3.7593654,-1.6189876z" transform="matrix(1,0,0,-1,10.925,2.0125)" fill="rgb(116,116,116)" fill-rule="nonzero" shaper:cutDepth="0.05cm" stroke-linecap="round" stroke-linejoin="round" /><path d="M3.5918347,-1.5938853 L3.5918347,-1.5938853 3.5822769,-1.6216811 3.5766114,-1.6350187 3.5698822,-1.647684 3.5617835,-1.6594838 3.5524686,-1.6705149 3.5318074,-1.6912932 3.5318074,-1.6912932 3.5071699,-1.7053597 3.4945138,-1.7112985 3.4814531,-1.7159256 3.4679296,-1.719051 3.4540437,-1.7210014 3.4256682,-1.7229439 3.4256682,-1.7229439 3.4071433,-1.7212947 3.38889,-1.7189976 3.3711799,-1.7154046 3.3626135,-1.7129196 3.3542847,-1.7098678 3.3462204,-1.7061851 3.3384025,-1.7019145 3.3233653,-1.6919452 3.3088916,-1.6806319 3.2946996,-1.6686465 3.2946996,-1.6686465 3.2828448,-1.6519753 3.2717176,-1.6350432 3.2620455,-1.6175896 3.2579826,-1.6085857 3.2545524,-1.599355 3.2495254,-1.5802365 3.2464182,-1.5604299 3.2445909,-1.5401645 3.2434036,-1.5196697 3.2434036,-1.5196697 3.244488,-1.4984234 3.2462239,-1.4774048 3.2492629,-1.4568416 3.2514746,-1.4468019 3.2542565,-1.4369615 3.2576882,-1.4273482 3.2617786,-1.4179651 3.2715755,-1.3997637 3.2828937,-1.382094 3.2949725,-1.3646902 3.2949725,-1.3646902 3.3096593,-1.3523241 3.3246413,-1.3406674 3.3402134,-1.3304294 3.3483129,-1.3260641 3.3566706,-1.3223191 3.3653009,-1.3192297 3.3741746,-1.3167252 3.3925129,-1.3131366 3.4114072,-1.3108848 3.4305796,-1.3093014 3.4305796,-1.3093014 3.4633758,-1.3121447 3.4792795,-1.3148909 3.4945899,-1.3192264 3.5091489,-1.325575 3.5230629,-1.3336512 3.5365468,-1.3428799 3.5498156,-1.3526847 3.5498156,-1.3526847 3.5635403,-1.3691147 3.5697713,-1.3776889 3.5752471,-1.3866929 3.579881,-1.3961759 3.5838636,-1.4060295 3.5907433,-1.4263546 3.5107978,-1.4454542 3.5107978,-1.4454542 3.5062881,-1.4313857 3.5035439,-1.4246508 3.5002126,-1.4182753 3.4961461,-1.4123497 3.4914605,-1.4068029 3.4810571,-1.3963409 3.4810571,-1.3963409 3.4685298,-1.3885204 3.4620715,-1.3851891 3.4553799,-1.3825524 3.4484126,-1.3807359 3.4412259,-1.3795722 3.4264868,-1.3783328 3.4264868,-1.3783328 3.4059076,-1.3806934 3.3960403,-1.3828221 3.3866798,-1.3860889 3.3779471,-1.3907652 3.3697356,-1.396612 3.3541812,-1.4102563 3.3541812,-1.4102563 3.3408686,-1.4342256 3.3354424,-1.4465709 3.3314663,-1.4593415 3.3289595,-1.4725428 3.3275636,-1.4860699 3.3266231,-1.513667 3.3266231,-1.513667 3.3274231,-1.5423712 3.3287525,-1.5564622 3.3311972,-1.5702397 3.335121,-1.5836017 3.3405357,-1.5965447 3.3539084,-1.6217161 3.3539084,-1.6217161 3.3690608,-1.6354224 3.3770804,-1.6413044 3.3856321,-1.6460209 3.3948277,-1.6493272 3.4045451,-1.6514907 3.4248497,-1.6539126 3.4248497,-1.6539126 3.4400298,-1.6523812 3.4473945,-1.6510094 3.4544887,-1.6489102 3.4612487,-1.6459125 3.4677323,-1.642171 3.4802385,-1.6334487 3.4802385,-1.6334487 3.4920785,-1.6192392 3.4973494,-1.611786 3.5018462,-1.6039172 3.50551,-1.5956012 3.5085363,-1.5869429 3.5135264,-1.5690558 3.5918347,-1.5938853z" transform="matrix(1,0,0,-1,10.925,2.0125)" fill="rgb(116,116,116)" fill-rule="nonzero" shaper:cutDepth="0.05cm" stroke-linecap="round" stroke-linejoin="round" /><path d="M2.5702794,-1.5783327 L2.5702794,-1.5783327 2.5740974,-1.5945785 2.5765419,-1.6024265 2.5796288,-1.6099448 2.583553,-1.6170335 2.5882479,-1.6237266 2.5989288,-1.6364501 2.5989288,-1.6364501 2.6123703,-1.6447984 2.619311,-1.6483058 2.6265153,-1.6510148 2.6340159,-1.6528257 2.6417467,-1.6539393 2.6575918,-1.655004 2.6575918,-1.655004 2.6732754,-1.6542976 2.6809563,-1.6534089 2.688444,-1.6518777 2.6956781,-1.6495027 2.7026719,-1.646328 2.7162549,-1.6386329 2.7162549,-1.6386329 2.7243075,-1.6304849 2.7278266,-1.626157 2.7307373,-1.6215246 2.7328748,-1.6165052 2.7343451,-1.6111518 2.736173,-1.599888 2.736173,-1.599888 2.7355749,-1.5933432 2.7341641,-1.5870889 2.7313664,-1.5813304 2.7277146,-1.5758771 2.7277146,-1.5758771 2.7213354,-1.5701574 2.7144401,-1.5652585 2.7068137,-1.5615224 2.6987924,-1.5584146 2.6987924,-1.5584146 2.6666047,-1.5491555 2.6341266,-1.5409521 2.6341266,-1.5409521 2.6097925,-1.5344598 2.5978639,-1.5306909 2.5862217,-1.5262948 2.5749595,-1.521066 2.5640839,-1.5149901 2.5429943,-1.5013887 2.5429943,-1.5013887 2.527622,-1.4840671 2.5209776,-1.4749328 2.5155833,-1.4652304 2.5117343,-1.4548257 2.509165,-1.4438395 2.5061594,-1.4208976 2.5061594,-1.4208976 2.5075459,-1.4057677 2.5087385,-1.3983525 2.5105302,-1.3911172 2.5130478,-1.3840996 2.5161543,-1.3772588 2.523349,-1.3638716 2.523349,-1.3638716 2.5336971,-1.3511075 2.5392424,-1.3451777 2.5452331,-1.3397904 2.5517525,-1.3350471 2.558694,-1.330818 2.5732808,-1.3232168 2.5732808,-1.3232168 2.5924864,-1.3169682 2.6021804,-1.3143409 2.6119834,-1.3123086 2.6319315,-1.310109 2.6521348,-1.3093014 2.6521348,-1.3093014 2.6825678,-1.3107709 2.6974475,-1.3125811 2.7119229,-1.315682 2.7258685,-1.3204751 2.7393147,-1.3268623 2.7653681,-1.3423164 2.7653681,-1.3423164 2.7820269,-1.3612872 2.7892046,-1.3713044 2.7950006,-1.3819595 2.7991532,-1.3933735 2.8019914,-1.4053943 2.8054772,-1.4304473 2.7247133,-1.4339944 2.7247133,-1.4339944 2.7218933,-1.421474 2.7200409,-1.4154483 2.7176574,-1.4097041 2.7145805,-1.4043273 2.71086,-1.3992917 2.7023395,-1.3897925 2.7023395,-1.3897925 2.6904648,-1.3833368 2.6843618,-1.3806811 2.6780624,-1.3787045 2.6648973,-1.3767086 2.6513162,-1.3761499 2.6513162,-1.3761499 2.6367279,-1.3768595 2.6225538,-1.3790561 2.6157469,-1.3811603 2.609127,-1.3839357 2.5962003,-1.390611 2.5962003,-1.390611 2.5908161,-1.3956971 2.5866156,-1.4013924 2.5843979,-1.4081086 2.5833763,-1.4154405 2.5833763,-1.4154405 2.5844168,-1.4224646 2.5865501,-1.4289574 2.5904502,-1.4345915 2.5953817,-1.4397243 2.5953817,-1.4397243 2.612959,-1.4489256 2.6219594,-1.4529804 2.6311887,-1.4564455 2.6501942,-1.4619669 2.6695973,-1.4664637 2.6695973,-1.4664637 2.6919445,-1.4719811 2.7140018,-1.478344 2.7355165,-1.4862899 2.7566369,-1.495386 2.7566369,-1.495386 2.7696311,-1.5034444 2.7815753,-1.51264 2.7917465,-1.5237561 2.8008388,-1.5360408 2.8008388,-1.5360408 2.8080193,-1.5511067 2.8110466,-1.5587873 2.8133992,-1.5666449 2.8149835,-1.5747039 2.8159679,-1.5829203 2.816937,-1.5996151 2.816937,-1.5996151 2.8153935,-1.6166671 2.8140672,-1.6250295 2.8120756,-1.6331954 2.8092783,-1.6411236 2.8058277,-1.6488589 2.7978374,-1.664008 2.7978374,-1.664008 2.7867476,-1.6780966 2.7807857,-1.68464 2.7743232,-1.6905824 2.76726,-1.6958035 2.7597131,-1.7004436 2.7438129,-1.7087556 2.7438129,-1.7087556 2.7225717,-1.7153462 2.7118569,-1.7181008 2.7010293,-1.7202089 2.6790293,-1.722447 2.6567733,-1.7232168 2.6567733,-1.7232168 2.6254146,-1.7214942 2.6100923,-1.7195115 2.5951985,-1.7161832 2.5808634,-1.7111006 2.5670432,-1.704401 2.5402658,-1.6882918 2.5402658,-1.6882918 2.5213048,-1.6660504 2.5130444,-1.6543324 2.5062455,-1.6418989 2.5011032,-1.6286543 2.4972513,-1.6147781 2.4916983,-1.5859726 2.5702794,-1.5783327z" transform="matrix(1,0,0,-1,10.925,2.0125)" fill="rgb(116,116,116)" fill-rule="nonzero" shaper:cutDepth="0.05cm" stroke-linecap="round" stroke-linejoin="round" /><path d="M-0.8762036,-1.3161226 L-0.8762036,-1.5327666 -0.8762036,-1.5327666 -0.8759126,-1.5662574 -0.874864,-1.5829531 -0.8732023,-1.5996151 -0.8732023,-1.5996151 -0.8695528,-1.6110554 -0.8645517,-1.6216546 -0.8611743,-1.6264084 -0.8572834,-1.6308427 -0.8486457,-1.6391786 -0.8486457,-1.6391786 -0.8361642,-1.6459185 -0.8297616,-1.6487312 -0.8231654,-1.650878 -0.8093843,-1.653146 -0.7951668,-1.6539126 -0.7951668,-1.6539126 -0.7813713,-1.6533198 -0.7679979,-1.6512682 -0.7615983,-1.6492501 -0.7553963,-1.646549 -0.7433251,-1.6399971 -0.7433251,-1.6399971 -0.7358526,-1.6326677 -0.7295721,-1.6246222 -0.725321,-1.6153578 -0.7223155,-1.605345 -0.7223155,-1.605345 -0.7192776,-1.5714505 -0.7187685,-1.537405 -0.7187685,-1.3161226 -0.6380044,-1.3161226 -0.6380044,-1.5262181 -0.6380044,-1.5262181 -0.6380842,-1.5517769 -0.6389135,-1.5772801 -0.6411767,-1.6026771 -0.6445529,-1.6279917 -0.6445529,-1.6279917 -0.6484612,-1.6415993 -0.6535237,-1.6546431 -0.6605665,-1.6667195 -0.6688367,-1.6781963 -0.6688367,-1.6781963 -0.6792046,-1.688316 -0.6903422,-1.6973449 -0.7027025,-1.7046407 -0.7157671,-1.7109385 -0.7157671,-1.7109385 -0.7345759,-1.7165146 -0.7536367,-1.7205721 -0.7730709,-1.722379 -0.7927111,-1.7229439 -0.7927111,-1.7229439 -0.8149381,-1.7225021 -0.8369326,-1.7206509 -0.847771,-1.7187618 -0.8584954,-1.7161813 -0.8797507,-1.7098471 -0.8797507,-1.7098471 -0.89278,-1.7030843 -0.9050882,-1.6953536 -0.9161432,-1.6859407 -0.9264083,-1.6754678 -0.9264083,-1.6754678 -0.9337926,-1.6652175 -0.9402608,-1.6545054 -0.9451499,-1.6429972 -0.9490549,-1.630993 -0.9490549,-1.630993 -0.9529384,-1.6057822 -0.9556473,-1.5804701 -0.9567393,-1.5550185 -0.9569676,-1.5294924 -0.9569676,-1.3161226 -0.8762036,-1.3161226z" transform="matrix(1,0,0,-1,10.925,2.0125)" fill="rgb(116,116,116)" fill-rule="nonzero" shaper:cutDepth="0.05cm" stroke-linecap="round" stroke-linejoin="round" /><path d="M-1.3591504,-1.3161226 L-1.2805692,-1.3161226 -1.1168585,-1.5832441 -1.1168585,-1.3161226 -1.0418243,-1.3161226 -1.0418243,-1.7161226 -1.1228612,-1.7161226 -1.2841162,-1.4552768 -1.2841162,-1.7161226 -1.3591504,-1.7161226 -1.3591504,-1.3161226z" transform="matrix(1,0,0,-1,10.925,2.0125)" fill="rgb(116,116,116)" fill-rule="nonzero" shaper:cutDepth="0.05cm" stroke-linecap="round" stroke-linejoin="round" /><path d="M-1.9817971,-1.3161226 L-1.8609239,-1.3161226 -1.7883455,-1.588974 -1.7165856,-1.3161226 -1.5954397,-1.3161226 -1.5954397,-1.7161226 -1.6704737,-1.7161226 -1.6704737,-1.4012523 -1.7498735,-1.7161226 -1.8276361,-1.7161226 -1.9067629,-1.4012523 -1.9067629,-1.7161226 -1.9817971,-1.7161226 -1.9817971,-1.3161226z" transform="matrix(1,0,0,-1,10.925,2.0125)" fill="rgb(116,116,116)" fill-rule="nonzero" shaper:cutDepth="0.05cm" stroke-linecap="round" stroke-linejoin="round" /><path d="M-5.1098401,-1.3161226 L-4.9398538,-1.3161226 -4.9398538,-1.3161226 -4.9162632,-1.3163558 -4.8928335,-1.3178061 -4.8812292,-1.3193666 -4.8697085,-1.3215594 -4.8468114,-1.3270367 -4.8468114,-1.3270367 -4.8329104,-1.3338421 -4.8263448,-1.3377171 -4.8202412,-1.342159 -4.8146945,-1.3472841 -4.8095976,-1.3529613 -4.8001538,-1.3652359 -4.8001538,-1.3652359 -4.7926333,-1.380108 -4.7894197,-1.3876975 -4.7868621,-1.3954709 -4.7850874,-1.4034639 -4.7839401,-1.411633 -4.7826916,-1.4282646 -4.7826916,-1.4282646 -4.784479,-1.4486393 -4.7861756,-1.4585353 -4.7888357,-1.4680816 -4.79271,-1.4771872 -4.7976182,-1.4859176 -4.8091579,-1.5027529 -4.8091579,-1.5027529 -4.8265869,-1.5168315 -4.8357288,-1.5229862 -4.8453817,-1.5280832 -4.8555992,-1.5320114 -4.8662524,-1.5350378 -4.8882848,-1.5395879 -4.8882848,-1.5395879 -4.8766612,-1.5468995 -4.8654833,-1.5547794 -4.8550827,-1.5636502 -4.8451744,-1.5731486 -4.8451744,-1.5731486 -4.8326088,-1.5886333 -4.8206985,-1.6045916 -4.7990623,-1.6380872 -4.7502223,-1.7161226 -4.8468114,-1.7161226 -4.9052016,-1.6290831 -4.9052016,-1.6290831 -4.9255459,-1.5990578 -4.9477665,-1.57042 -4.9477665,-1.57042 -4.9531442,-1.5652324 -4.9588857,-1.5605834 -4.9652646,-1.5568786 -4.9720503,-1.5537761 -4.9720503,-1.5537761 -4.9820654,-1.5514577 -4.9921734,-1.5498638 -5.0127051,-1.5491377 -5.0290762,-1.5491377 -5.0290762,-1.7161226 -5.1098401,-1.7161226 -5.1098401,-1.3161226z M-4.9693217,-1.4852905 L-4.9693217,-1.4852905 -4.9510623,-1.4854079 -4.9328559,-1.4849053 -4.9147535,-1.4831826 -4.8967433,-1.4803791 -4.8967433,-1.4803791 -4.8901112,-1.4774429 -4.8840033,-1.4738082 -4.8787807,-1.4689941 -4.8740965,-1.4634623 -4.8740965,-1.4634623 -4.8704534,-1.4564094 -4.8677197,-1.4490999 -4.8664096,-1.4413888 -4.8659111,-1.4334487 -4.8659111,-1.4334487 -4.8665772,-1.4246135 -4.8683249,-1.4161548 -4.8719695,-1.4083563 -4.8768252,-1.4009794 -4.8768252,-1.4009794 -4.8833756,-1.3951132 -4.8905055,-1.3903306 -4.8985475,-1.3872541 -4.9071116,-1.385154 -4.9071116,-1.385154 -4.936561,-1.3838597 -4.9660475,-1.3837898 -5.0290762,-1.3837898 -5.0290762,-1.4852905 -4.9693217,-1.4852905z" transform="matrix(1,0,0,-1,10.925,2.0125)" fill="rgb(116,116,116)" fill-rule="nonzero" shaper:cutDepth="0.05cm" stroke-linecap="round" stroke-linejoin="round" /><path d="M-6.3515862,-1.3161226 L-6.2708223,-1.3161226 -6.2708223,-1.4735579 -6.1125685,-1.4735579 -6.1125685,-1.3161226 -6.0318045,-1.3161226 -6.0318045,-1.7161226 -6.1125685,-1.7161226 -6.1125685,-1.541225 -6.2708223,-1.541225 -6.2708223,-1.7161226 -6.3515862,-1.7161226 -6.3515862,-1.3161226z" transform="matrix(1,0,0,-1,10.925,2.0125)" fill="rgb(116,116,116)" fill-rule="nonzero" shaper:cutDepth="0.05cm" stroke-linecap="round" stroke-linejoin="round" /><path d="M-0.185,1.6625 a0.16,0.16 0 1,1 0.32,0 a0.16,0.16 0 1,1 -0.32,0z" transform="matrix(1,0,0,-1,10.925,2.0125)" fill="rgb(255,255,255)" stroke="rgb(0,0,0)" stroke-width="0.0010cm" stroke-linecap="round" stroke-linejoin="round" shaper:cutDepth="0.3cm" /><path d="M9.015,1.6625 a0.16,0.16 0 1,1 0.32,0 a0.16,0.16 0 1,1 -0.32,0z" transform="matrix(1,0,0,-1,10.925,2.0125)" fill="rgb(255,255,255)" stroke="rgb(0,0,0)" stroke-width="0.0010cm" stroke-linecap="round" stroke-linejoin="round" shaper:cutDepth="0.3cm" /><path d="M-10.27,-1.5475 a0.16,0.16 0 1,1 0.32,0 a0.16,0.16 0 1,1 -0.32,0z" transform="matrix(1,0,0,-1,10.925,2.0125)" fill="rgb(255,255,255)" stroke="rgb(0,0,0)" stroke-width="0.0010cm" stroke-linecap="round" stroke-linejoin="round" shaper:cutDepth="0.3cm" /><path d="M9.015,-1.5575 a0.16,0.16 0 1,1 0.32,0 a0.16,0.16 0 1,1 -0.32,0z" transform="matrix(1,0,0,-1,10.925,2.0125)" fill="rgb(255,255,255)" stroke="rgb(0,0,0)" stroke-width="0.0010cm" stroke-linecap="round" stroke-linejoin="round" shaper:cutDepth="0.3cm" /><path d="M-10.27,1.6625 a0.16,0.16 0 1,1 0.32,0 a0.16,0.16 0 1,1 -0.32,0z" transform="matrix(1,0,0,-1,10.925,2.0125)" fill="rgb(255,255,255)" stroke="rgb(0,0,0)" stroke-width="0.0010cm" stroke-linecap="round" stroke-linejoin="round" shaper:cutDepth="0.3cm" /></svg>