<?xml version="1.0" encoding="utf-8"?>
<!-- Generator: Fusion 360, Shaper Origin Export Add-In, Version 1.8.0  -->
<svg xmlns="http://www.w3.org/2000/svg" xmlns:xlink="http://www.w3.org/1999/xlink" xmlns:shaper="http://www.shapertools.com/namespaces/shaper" shaper:fusionaddin="version:1.8.0" width="22.15cm" height="12.6592276cm" version="1.1" x="0cm" y="0cm" viewBox="0 0 22.15 12.6592276" enable-background="new 0 0 22.15 12.6592276" xml:space="preserve"><path d="M-10.825,6.0356751 L-11.075,6.0356751 -11.075,-6.3296138 11.075,-6.3296138 11.075,6.0256751 11.035,6.0259008 11.035,6.3296138 -10.825,6.3296138 -10.825,6.0356751z" transform="matrix(1,0,0,-1,11.075,6.3296138)" fill="rgb(0,0,0)" shaper:cutDepth="0.3cm" stroke-linecap="round" stroke-linejoin="round" /><path d="M-6.2872369,4.8929261 L-6.4896247,4.8929261 -6.4896247,4.9283286 -6.3269374,4.9283286 -6.3269374,5.0212344 -6.4677283,5.0212344 -6.4677283,5.0566368 -6.3269374,5.0566368 -6.3269374,5.1929261 -6.2872369,5.1929261 -6.2872369,4.8929261z" transform="matrix(1,0,0,-1,11.075,6.3296138)" fill="rgb(116,116,116)" fill-rule="nonzero" shaper:cutDepth="0.05cm" stroke-linecap="round" stroke-linejoin="round" /><path d="M-6.9602935,4.8929261 L-7.0734584,4.8929261 -7.0734584,4.8929261 -7.096341,4.8934123 -7.1190927,4.895791 -7.1190927,4.895791 -7.128897,4.8979182 -7.1384152,4.9007827 -7.147433,4.9049368 -7.1561324,4.9099111 -7.1561324,4.9099111 -7.1634395,4.9160176 -7.1700066,4.9227439 -7.1753855,4.9304655 -7.1800744,4.9387651 -7.1800744,4.9387651 -7.1840266,4.948622 -7.1870664,4.9586863 -7.1886144,4.9690896 -7.1892831,4.9796928 -7.1892831,4.9796928 -7.1874996,4.997542 -7.1858827,5.0061917 -7.1833957,5.0145116 -7.1798286,5.0224222 -7.1753623,5.0299919 -7.164931,5.0445632 -7.164931,5.0445632 -7.1450654,5.0575228 -7.1347179,5.0627661 -7.1238847,5.066561 -7.1125707,5.068922 -7.1008943,5.0702023 -7.0769374,5.0709616 -6.999993,5.0709616 -6.999993,5.1929261 -6.9602935,5.1929261 -6.9602935,4.8929261z M-7.0775506,5.0355591 L-7.0775506,5.0355591 -7.09213,5.0351324 -7.0992776,5.0344318 -7.1062548,5.0331465 -7.1130059,5.0310858 -7.1195296,5.0282452 -7.1321895,5.0212344 -7.1321895,5.0212344 -7.1393549,5.0124516 -7.1423833,5.0078303 -7.1447473,5.0029333 -7.1463478,4.9977198 -7.1473497,4.9922579 -7.1483562,4.9809206 -7.1483562,4.9809206 -7.1477105,4.9723505 -7.14613,4.9640664 -7.1429368,4.9562755 -7.1387374,4.9487924 -7.1387374,4.9487924 -7.1335968,4.9427948 -7.1278581,4.9376375 -7.1211174,4.9338883 -7.1137721,4.9309888 -7.1137721,4.9309888 -7.095336,4.9286641 -7.0767323,4.9283286 -6.999993,4.9283286 -6.999993,5.0355591 -7.0775506,5.0355591z" transform="matrix(1,0,0,-1,11.075,6.3296138)" fill="rgb(116,116,116)" fill-rule="nonzero" shaper:cutDepth="0.05cm" stroke-linecap="round" stroke-linejoin="round" /><path d="M-7.5705249,4.9299657 L-7.5705249,4.9299657 -7.5932243,4.9116963 -7.605127,4.9038938 -7.6176931,4.8976899 -7.6310496,4.8933901 -7.6450388,4.8906149 -7.674072,4.8876055 -7.674072,4.8876055 -7.6937379,4.8890504 -7.7034125,4.8903648 -7.7128969,4.8923896 -7.722145,4.8952972 -7.731196,4.8989409 -7.7489697,4.9074554 -7.7489697,4.9074554 -7.7645014,4.9187126 -7.7717804,4.9247874 -7.7784753,4.9313976 -7.7844604,4.9386585 -7.7898677,4.9464489 -7.7997195,4.9629124 -7.7997195,4.9629124 -7.8073811,4.9822908 -7.8106417,4.9921072 -7.8132182,5.0020761 -7.8149895,5.0122245 -7.8161212,5.0225156 -7.8173186,5.0433354 -7.8173186,5.0433354 -7.8160527,5.0645143 -7.8148632,5.074976 -7.8130058,5.0852844 -7.8103092,5.0954003 -7.8069016,5.1053529 -7.7989013,5.1249861 -7.7989013,5.1249861 -7.7887132,5.1413857 -7.7831365,5.1491228 -7.7769807,5.1563045 -7.7701083,5.1627992 -7.7626417,5.1687242 -7.7467181,5.1796246 -7.7467181,5.1796246 -7.7293151,5.187425 -7.7204752,5.1907787 -7.7114691,5.1934767 -7.7022608,5.1953766 -7.6928877,5.1966263 -7.6738669,5.1980421 -7.6738669,5.1980421 -7.6539412,5.1965714 -7.6441456,5.1952239 -7.634551,5.1931419 -7.6252066,5.1901446 -7.6160717,5.1863813 -7.5981509,5.1775782 -7.5981509,5.1775782 -7.5827088,5.1661513 -7.5754665,5.1600044 -7.5687987,5.1533375 -7.5628321,5.146036 -7.5574382,5.138216 -7.5476052,5.1217119 -7.5476052,5.1217119 -7.5403468,5.1036674 -7.5372227,5.0945291 -7.5347046,5.0852517 -7.5329265,5.0758044 -7.5317533,5.0662182 -7.5304152,5.0468142 -7.5304152,5.0468142 -7.532709,5.0148289 -7.5351131,4.9992871 -7.5390258,4.9842862 -7.5448818,4.9699821 -7.5524668,4.9562981 -7.5612071,4.9430283 -7.5705249,4.9299657z M-7.6004016,5.132967 L-7.6004016,5.132967 -7.6163916,5.1461925 -7.6247854,5.1518706 -7.6336578,5.1564272 -7.6431101,5.159625 -7.6530329,5.16172 -7.6736629,5.1640721 -7.6736629,5.1640721 -7.6944714,5.1617373 -7.704472,5.1596342 -7.7139883,5.156408 -7.7229049,5.1517916 -7.7313238,5.1460213 -7.7473323,5.1325577 -7.7473323,5.1325577 -7.7605858,5.1122526 -7.7661235,5.1017269 -7.7703591,5.0907552 -7.7731587,5.0792916 -7.7748511,5.0674487 -7.7763907,5.0431307 -7.7763907,5.0431307 -7.775611,5.0266976 -7.7735997,5.0105124 -7.7694369,4.9947604 -7.7639081,4.9792835 -7.7639081,4.9792835 -7.7570561,4.9667999 -7.7490168,4.9553368 -7.7442216,4.9502717 -7.7389661,4.9456024 -7.7276875,4.9369234 -7.7276875,4.9369234 -7.7151023,4.9304517 -7.7020942,4.9254602 -7.6883912,4.9229004 -7.674277,4.9217801 -7.674277,4.9217801 -7.6541164,4.9240483 -7.6443767,4.9260339 -7.6350458,4.9290413 -7.6262147,4.933298 -7.6177926,4.938577 -7.6016299,4.9508388 -7.6016299,4.9508388 -7.5871179,4.9726012 -7.581181,4.9839357 -7.5768037,4.9958062 -7.5740255,5.0082261 -7.5724585,5.0210622 -7.5713431,5.0474281 -7.5713431,5.0474281 -7.5730347,5.0707859 -7.5747884,5.0821433 -7.5776315,5.0931151 -7.5818754,5.1035909 -7.5873602,5.1136275 -7.6004016,5.132967z" transform="matrix(1,0,0,-1,11.075,6.3296138)" fill="rgb(116,116,116)" fill-rule="nonzero" shaper:cutDepth="0.05cm" stroke-linecap="round" stroke-linejoin="round" /><path d="M-8.152517,4.9299657 L-8.152517,4.9299657 -8.1752165,4.9116963 -8.1871191,4.9038938 -8.1996853,4.8976899 -8.2130418,4.8933901 -8.227031,4.8906149 -8.2560641,4.8876055 -8.2560641,4.8876055 -8.2757301,4.8890503 -8.2854047,4.8903646 -8.2948891,4.8923894 -8.3041372,4.8952969 -8.3131882,4.8989407 -8.3309619,4.9074554 -8.3309619,4.9074554 -8.3464935,4.9187126 -8.3537726,4.9247874 -8.3604675,4.9313976 -8.3664525,4.9386585 -8.3718599,4.9464489 -8.3817117,4.9629124 -8.3817117,4.9629124 -8.3893733,4.9822908 -8.3926338,4.9921072 -8.3952103,5.0020761 -8.3969816,5.0122245 -8.3981133,5.0225156 -8.3993108,5.0433354 -8.3993108,5.0433354 -8.3980448,5.0645143 -8.3968553,5.074976 -8.3949979,5.0852844 -8.3923013,5.0954003 -8.3888938,5.1053529 -8.3808934,5.1249861 -8.3808934,5.1249861 -8.3707058,5.1413859 -8.3651293,5.149123 -8.3589736,5.1563047 -8.3521013,5.1627994 -8.3446347,5.1687243 -8.3287112,5.1796246 -8.3287112,5.1796246 -8.311308,5.1874249 -8.3024679,5.1907786 -8.2934616,5.1934766 -8.2842532,5.1953765 -8.27488,5.1966263 -8.2558591,5.1980421 -8.2558591,5.1980421 -8.2359334,5.1965712 -8.2261379,5.1952237 -8.2165432,5.1931416 -8.2071988,5.1901444 -8.1980639,5.1863812 -8.1801431,5.1775782 -8.1801431,5.1775782 -8.1647006,5.1661516 -8.1574581,5.1600048 -8.1507903,5.153338 -8.1448237,5.1460364 -8.13943,5.1382163 -8.1295974,5.1217119 -8.1295974,5.1217119 -8.1223395,5.1036673 -8.1192156,5.094529 -8.1166976,5.0852516 -8.1149196,5.0758043 -8.1137465,5.0662181 -8.1124084,5.0468142 -8.1124084,5.0468142 -8.1147022,5.0148291 -8.1171063,4.9992873 -8.1210189,4.9842864 -8.1268747,4.9699824 -8.1344595,4.9562983 -8.1431995,4.9430284 -8.152517,4.9299657z M-8.1823947,5.132967 L-8.1823947,5.132967 -8.1983844,5.1461926 -8.206778,5.1518707 -8.2156503,5.1564274 -8.2251025,5.1596251 -8.2350252,5.1617201 -8.255655,5.1640721 -8.255655,5.1640721 -8.2764636,5.1617375 -8.2864643,5.1596344 -8.2959806,5.1564084 -8.3048972,5.1517919 -8.3133161,5.1460216 -8.3293244,5.1325577 -8.3293244,5.1325577 -8.3425779,5.1122526 -8.3481156,5.1017269 -8.3523513,5.0907552 -8.3551509,5.0792916 -8.3568433,5.0674487 -8.3583829,5.0431307 -8.3583829,5.0431307 -8.3576031,5.0266976 -8.3555918,5.0105124 -8.3514291,4.9947604 -8.3459002,4.9792835 -8.3459002,4.9792835 -8.3390483,4.9667999 -8.3310089,4.9553368 -8.3262138,4.9502717 -8.3209582,4.9456024 -8.3096797,4.9369234 -8.3096797,4.9369234 -8.2970942,4.9304518 -8.2840858,4.9254603 -8.2703826,4.9229005 -8.2562682,4.9217801 -8.2562682,4.9217801 -8.2361078,4.9240484 -8.2263683,4.926034 -8.2170376,4.9290415 -8.2082066,4.9332982 -8.1997845,4.9385771 -8.1836221,4.9508388 -8.1836221,4.9508388 -8.1691094,4.972601 -8.1631724,4.9839355 -8.158795,4.9958059 -8.1560169,5.0082258 -8.1544501,5.021062 -8.1533353,5.0474281 -8.1533353,5.0474281 -8.1550268,5.070786 -8.1567805,5.0821435 -8.1596237,5.0931153 -8.1638678,5.1035911 -8.1693527,5.1136276 -8.1823947,5.132967z" transform="matrix(1,0,0,-1,11.075,6.3296138)" fill="rgb(116,116,116)" fill-rule="nonzero" shaper:cutDepth="0.05cm" stroke-linecap="round" stroke-linejoin="round" /><path d="M-8.7909886,5.0658456 L-8.675368,4.8929261 -8.7236621,4.8929261 -8.7828032,4.9833763 -8.7828032,4.9833763 -8.7984622,5.0085031 -8.8132941,5.0341266 -8.8132941,5.0341266 -8.8292906,5.0073949 -8.8460366,4.9811253 -8.9041535,4.8929261 -8.950402,4.8929261 -8.8306882,5.0658456 -8.8306882,5.1929261 -8.7909886,5.1929261 -8.7909886,5.0658456z" transform="matrix(1,0,0,-1,11.075,6.3296138)" fill="rgb(116,116,116)" fill-rule="nonzero" shaper:cutDepth="0.05cm" stroke-linecap="round" stroke-linejoin="round" /><path d="M-9.7646586,5.5893108 L-9.6345078,5.5893108 -9.6345078,5.5555455 -9.7714107,5.3611389 -9.8014934,5.3611389 -9.8014934,5.5555455 -9.8420112,5.5555455 -9.8420112,5.5893108 -9.8014934,5.5893108 -9.8014934,5.6611389 -9.7646586,5.6611389 -9.7646586,5.5893108z M-9.7646586,5.4202794 L-9.6707294,5.5555455 -9.7646586,5.5555455 -9.7646586,5.4202794z" transform="matrix(1,0,0,-1,11.075,6.3296138)" fill="rgb(116,116,116)" fill-rule="nonzero" shaper:cutDepth="0.05cm" stroke-linecap="round" stroke-linejoin="round" /><path d="M-9.8401706,5.1929261 L-9.6418759,5.1929261 -9.6418759,5.1929261 -9.6427391,5.1799198 -9.6461732,5.1673463 -9.6461732,5.1673463 -9.6510116,5.1566512 -9.6565256,5.1463615 -9.6631135,5.136716 -9.6703202,5.1274418 -9.6703202,5.1274418 -9.6934926,5.1037003 -9.7186152,5.082012 -9.7186152,5.082012 -9.7363026,5.067339 -9.7534256,5.0520901 -9.769476,5.0357469 -9.7847135,5.0185741 -9.7847135,5.0185741 -9.7913983,5.0083579 -9.7968567,4.9976868 -9.8001118,4.9861985 -9.8019034,4.9741676 -9.8019034,4.9741676 -9.8006839,4.9637937 -9.7996114,4.958805 -9.7979834,4.9540542 -9.795675,4.9495949 -9.7928087,4.9453747 -9.7861459,4.9373327 -9.7861459,4.9373327 -9.7770537,4.9306928 -9.7723162,4.9278748 -9.7673491,4.9256587 -9.756668,4.9231848 -9.745423,4.9221894 -9.745423,4.9221894 -9.7336381,4.9232159 -9.7279344,4.9242183 -9.7224572,4.9258079 -9.7172677,4.928143 -9.7123264,4.9311215 -9.7028577,4.9381512 -9.7028577,4.9381512 -9.6956974,4.948016 -9.692675,4.9531605 -9.6903208,4.958559 -9.6887246,4.9642456 -9.6877189,4.9701567 -9.686692,4.9823531 -9.648833,4.978465 -9.648833,4.978465 -9.6518624,4.9603368 -9.6540758,4.9516008 -9.6571276,4.9432585 -9.661257,4.9354222 -9.6663396,4.9280336 -9.6780965,4.9140039 -9.6780965,4.9140039 -9.6936259,4.904005 -9.7016605,4.8997978 -9.7100185,4.8965397 -9.7187421,4.8943548 -9.7277504,4.8930052 -9.7462413,4.8916983 -9.7462413,4.8916983 -9.7649842,4.8931329 -9.774085,4.8945943 -9.782861,4.8969486 -9.7912207,4.9004473 -9.7992145,4.9049521 -9.8145911,4.915641 -9.8145911,4.915641 -9.8252623,4.9286142 -9.8298486,4.9354196 -9.8335357,4.9426076 -9.8361297,4.9502606 -9.8378342,4.9582922 -9.8397605,4.9749861 -9.8397605,4.9749861 -9.8391588,4.9840931 -9.8378747,4.9930589 -9.8354674,5.0017926 -9.8323943,5.0103885 -9.8323943,5.0103885 -9.8273057,5.0202407 -9.8216084,5.0296905 -9.814983,5.0385267 -9.8078372,5.0470189 -9.8078372,5.0470189 -9.7803668,5.0743428 -9.7511527,5.0998156 -9.7511527,5.0998156 -9.7294383,5.1182645 -9.7085883,5.1376737 -9.7085883,5.1376737 -9.700279,5.1471827 -9.6930358,5.1575236 -9.8401706,5.1575236 -9.8401706,5.1929261z" transform="matrix(1,0,0,-1,11.075,6.3296138)" fill="rgb(116,116,116)" fill-rule="nonzero" shaper:cutDepth="0.05cm" stroke-linecap="round" stroke-linejoin="round" /><path d="M-8.1697061,5.437469 L-8.1697061,5.437469 -8.1675327,5.4289878 -8.1647056,5.4208084 -8.1606714,5.4131861 -8.15579,5.4059548 -8.15579,5.4059548 -8.1477479,5.3992925 -8.1435276,5.3964263 -8.1390683,5.394118 -8.1343176,5.3924901 -8.129329,5.3914174 -8.1189553,5.3901976 -8.1189553,5.3901976 -8.1106727,5.3909158 -8.1026906,5.3925703 -8.0952176,5.3958111 -8.0880553,5.4000202 -8.0880553,5.4000202 -8.0794029,5.4079289 -8.0717707,5.4166048 -8.0657432,5.4264873 -8.0606334,5.4370598 -8.0606334,5.4370598 -8.0557743,5.4540361 -8.0522776,5.4712345 -8.0507146,5.4887481 -8.0501973,5.5064322 -8.0501973,5.5064322 -8.0569834,5.4974417 -8.0644893,5.489236 -8.0732297,5.4823763 -8.0827348,5.4763503 -8.0827348,5.4763503 -8.0924091,5.4722308 -8.1023029,5.4690146 -8.1125646,5.4673137 -8.1230485,5.4665277 -8.1230485,5.4665277 -8.140713,5.4686945 -8.1492014,5.4705712 -8.1572773,5.4734 -8.1648514,5.4773865 -8.1720171,5.4823156 -8.1856677,5.4937446 -8.1856677,5.4937446 -8.1970286,5.5093927 -8.201856,5.517541 -8.2056601,5.5260782 -8.208266,5.5350708 -8.2099234,5.5444239 -8.2116572,5.563731 -8.2116572,5.563731 -8.210731,5.5773819 -8.2086432,5.5907603 -8.2046023,5.6036805 -8.1993787,5.6163232 -8.1993787,5.6163232 -8.1928604,5.6272332 -8.1853641,5.6372569 -8.1762037,5.6457725 -8.166022,5.6533627 -8.166022,5.6533627 -8.1545771,5.6589124 -8.1427838,5.6631725 -8.1304227,5.6653311 -8.1177279,5.6662549 -8.1177279,5.6662549 -8.0962848,5.6637124 -8.0860148,5.6614425 -8.0762867,5.6579743 -8.0672269,5.6530279 -8.0587195,5.6468603 -8.0426251,5.6324896 -8.0426251,5.6324896 -8.028498,5.6065299 -8.0227565,5.5931699 -8.0185699,5.5793627 -8.0159442,5.5651067 -8.0144969,5.5505117 -8.0135667,5.520757 -8.0135667,5.520757 -8.0146532,5.4871987 -8.0162766,5.4707215 -8.0191963,5.4546067 -8.0238308,5.4389712 -8.0301602,5.4238096 -8.045695,5.3942904 -8.045695,5.3942904 -8.0617261,5.3795191 -8.0702341,5.3732017 -8.0793328,5.3681662 -8.0891386,5.3646646 -8.0995125,5.3623954 -8.121207,5.3599111 -8.121207,5.3599111 -8.1369824,5.361191 -8.1446559,5.3624391 -8.1520723,5.3644168 -8.1591623,5.3673209 -8.1659709,5.3710236 -8.1791188,5.379761 -8.1791188,5.379761 -8.1895045,5.391658 -8.1940667,5.3979258 -8.1978725,5.4045768 -8.2007982,5.4116734 -8.2030298,5.4191216 -8.2063357,5.4346041 -8.1697061,5.437469z M-8.0639083,5.6003613 L-8.0639083,5.6003613 -8.068276,5.6081411 -8.0733439,5.6153178 -8.079612,5.6214609 -8.0866229,5.6269642 -8.0866229,5.6269642 -8.0938114,5.6306999 -8.1012336,5.6336362 -8.1090525,5.6352167 -8.1171138,5.6359684 -8.1171138,5.6359684 -8.128583,5.6343737 -8.1340678,5.633037 -8.1392528,5.6310533 -8.14408,5.6282975 -8.1486205,5.6249228 -8.1572234,5.6171416 -8.1572234,5.6171416 -8.1647709,5.6054991 -8.1679422,5.5994717 -8.1703923,5.5931975 -8.1720306,5.5866454 -8.1730385,5.5798775 -8.1740033,5.565982 -8.1740033,5.565982 -8.1730489,5.5526268 -8.1720528,5.5461327 -8.170434,5.5398588 -8.1680136,5.5338685 -8.1648812,5.5281299 -8.1574275,5.5170734 -8.1574275,5.5170734 -8.148357,5.5094199 -8.1435875,5.5061335 -8.138537,5.5034954 -8.1331458,5.5016434 -8.127478,5.5004295 -8.1156814,5.4990652 -8.1156814,5.4990652 -8.1037779,5.5004764 -8.0980502,5.5017091 -8.0925912,5.5035744 -8.0874606,5.5062123 -8.0825983,5.5094818 -8.0733211,5.5170734 -8.0733211,5.5170734 -8.0656807,5.5275342 -8.0624403,5.5329856 -8.0598951,5.538702 -8.0581588,5.5447267 -8.0570604,5.5509946 -8.055927,5.5639357 -8.055927,5.5639357 -8.0565544,5.5733416 -8.0579288,5.5825839 -8.0605462,5.5915541 -8.0639083,5.6003613z" transform="matrix(1,0,0,-1,11.075,6.3296138)" fill="rgb(116,116,116)" fill-rule="nonzero" shaper:cutDepth="0.05cm" stroke-linecap="round" stroke-linejoin="round" /><path d="M-8.3755719,5.4276464 L-8.3755719,5.4276464 -8.3813148,5.4135331 -8.3883123,5.4002483 -8.3926478,5.3941584 -8.3975092,5.3884158 -8.4081094,5.37751 -8.4081094,5.37751 -8.4206128,5.3697795 -8.4270592,5.3665008 -8.4337389,5.3639257 -8.4406901,5.3621689 -8.4478555,5.3610577 -8.4625432,5.3599111 -8.4625432,5.3599111 -8.473562,5.3605597 -8.4843535,5.3621664 -8.4947517,5.3654308 -8.5049035,5.3697337 -8.5049035,5.3697337 -8.5136882,5.3753802 -8.5217751,5.3817788 -8.528718,5.38941 -8.5349853,5.3977692 -8.5349853,5.3977692 -8.5409109,5.4083849 -8.546113,5.4193065 -8.550183,5.4307069 -8.5536077,5.4423803 -8.5536077,5.4423803 -8.5568144,5.4599253 -8.5591093,5.477564 -8.5600919,5.4953379 -8.5603606,5.5131853 -8.5603606,5.5131853 -8.5598732,5.5348207 -8.5582567,5.5563029 -8.554585,5.5775062 -8.5495145,5.5985196 -8.5495145,5.5985196 -8.5437924,5.6126445 -8.5368008,5.6259323 -8.5324602,5.632019 -8.5275924,5.637758 -8.516977,5.6486559 -8.516977,5.6486559 -8.5044839,5.6564104 -8.4980404,5.6596953 -8.4913607,5.6622699 -8.4844075,5.6640217 -8.477239,5.6651259 -8.4625432,5.6662549 -8.4625432,5.6662549 -8.442918,5.6640606 -8.4335388,5.662029 -8.4246798,5.658876 -8.4164713,5.6543207 -8.40881,5.6485859 -8.3943994,5.6351499 -8.3943994,5.6351499 -8.3799323,5.6065576 -8.3740604,5.5918947 -8.369788,5.5768009 -8.3671147,5.5612763 -8.3656482,5.5454266 -8.3647267,5.5131853 -8.3647267,5.5131853 -8.3652022,5.4914972 -8.3668105,5.4699628 -8.370485,5.4487088 -8.3755719,5.4276464z M-8.4197738,5.6116164 L-8.4197738,5.6116164 -8.4284006,5.6214396 -8.4330544,5.6257358 -8.4381165,5.6292935 -8.4436982,5.6319116 -8.4497297,5.6337162 -8.4625432,5.6359684 -8.4625432,5.6359684 -8.4753481,5.6336927 -8.4813677,5.6318711 -8.4869282,5.6292298 -8.4919588,5.6256424 -8.4965733,5.6213117 -8.5051085,5.6114117 -8.5051085,5.6114117 -8.5142592,5.5878563 -8.5178357,5.5758704 -8.5202911,5.5636507 -8.5217319,5.5512194 -8.5224116,5.5386296 -8.5225026,5.5131853 -8.5225026,5.5131853 -8.5224288,5.4876859 -8.521756,5.4750689 -8.5203199,5.4626111 -8.5178664,5.4503654 -8.5142851,5.438355 -8.5051085,5.4147542 -8.5051085,5.4147542 -8.4964559,5.404879 -8.4917837,5.4005678 -8.4866965,5.3970083 -8.4810834,5.3944014 -8.4750182,5.3926132 -8.4621341,5.3904022 -8.4621341,5.3904022 -8.4500941,5.3921476 -8.4444023,5.3936432 -8.4391043,5.3958862 -8.4342823,5.399033 -8.4298461,5.4029117 -8.4216163,5.4118892 -8.4216163,5.4118892 -8.4118424,5.4361262 -8.4079742,5.4484655 -8.4052697,5.461057 -8.4036493,5.4738833 -8.4028424,5.486886 -8.4025847,5.5131853 -8.4025847,5.5131853 -8.4026669,5.5386606 -8.4033355,5.551269 -8.4047572,5.5637225 -8.4071828,5.5759694 -8.4107192,5.5879877 -8.4197738,5.6116164z" transform="matrix(1,0,0,-1,11.075,6.3296138)" fill="rgb(116,116,116)" fill-rule="nonzero" shaper:cutDepth="0.05cm" stroke-linecap="round" stroke-linejoin="round" /><path d="M-8.9004695,5.356023 L-8.929938,5.356023 -8.8431708,5.6662549 -8.8134982,5.6662549 -8.9004695,5.356023z" transform="matrix(1,0,0,-1,11.075,6.3296138)" fill="rgb(116,116,116)" fill-rule="nonzero" shaper:cutDepth="0.05cm" stroke-linecap="round" stroke-linejoin="round" /><path d="M-9.191261,5.4276464 L-9.191261,5.4276464 -9.1970034,5.4135328 -9.2040007,5.4002478 -9.2083363,5.394158 -9.2131978,5.3884155 -9.2237985,5.37751 -9.2237985,5.37751 -9.2363019,5.3697795 -9.2427483,5.3665008 -9.249428,5.3639257 -9.2563792,5.3621689 -9.2635446,5.3610577 -9.2782323,5.3599111 -9.2782323,5.3599111 -9.2892511,5.3605597 -9.3000425,5.3621664 -9.3104408,5.3654308 -9.3205926,5.3697337 -9.3205926,5.3697337 -9.3293773,5.3753802 -9.3374642,5.3817788 -9.3444071,5.38941 -9.3506743,5.3977692 -9.3506743,5.3977692 -9.3566,5.4083849 -9.3618021,5.4193065 -9.3658721,5.4307069 -9.3692967,5.4423803 -9.3692967,5.4423803 -9.3725035,5.4599253 -9.3747984,5.477564 -9.375781,5.4953379 -9.3760497,5.5131853 -9.3760497,5.5131853 -9.3755623,5.5348207 -9.3739458,5.5563029 -9.3702741,5.5775062 -9.3652036,5.5985196 -9.3652036,5.5985196 -9.3594815,5.6126445 -9.3524899,5.6259323 -9.3481493,5.632019 -9.3432814,5.637758 -9.3326661,5.6486559 -9.3326661,5.6486559 -9.320173,5.6564104 -9.3137295,5.6596953 -9.3070498,5.6622699 -9.3000966,5.6640217 -9.2929281,5.6651259 -9.2782323,5.6662549 -9.2782323,5.6662549 -9.2586068,5.6640607 -9.2492275,5.6620291 -9.2403684,5.6588762 -9.2321598,5.6543209 -9.2244983,5.648586 -9.2100875,5.6351499 -9.2100875,5.6351499 -9.1956211,5.6065575 -9.1897493,5.5918945 -9.185477,5.5768006 -9.1828036,5.5612761 -9.181337,5.5454264 -9.1804149,5.5131853 -9.1804149,5.5131853 -9.1808902,5.4914971 -9.1824986,5.4699627 -9.1861735,5.4487087 -9.191261,5.4276464z M-9.2354629,5.6116164 L-9.2354629,5.6116164 -9.2440897,5.6214396 -9.2487435,5.6257358 -9.2538055,5.6292935 -9.2593872,5.6319116 -9.2654188,5.6337162 -9.2782323,5.6359684 -9.2782323,5.6359684 -9.2910372,5.6336927 -9.2970568,5.6318711 -9.3026173,5.6292298 -9.3076479,5.6256424 -9.3122624,5.6213117 -9.3207976,5.6114117 -9.3207976,5.6114117 -9.3299483,5.5878563 -9.3335248,5.5758704 -9.3359802,5.5636507 -9.3374209,5.5512194 -9.3381007,5.5386296 -9.3381917,5.5131853 -9.3381917,5.5131853 -9.3381179,5.4876859 -9.3374451,5.4750689 -9.336009,5.4626111 -9.3335555,5.4503654 -9.3299742,5.438355 -9.3207976,5.4147542 -9.3207976,5.4147542 -9.312145,5.404879 -9.3074728,5.4005678 -9.3023856,5.3970083 -9.2967725,5.3944014 -9.2907073,5.3926132 -9.2778232,5.3904022 -9.2778232,5.3904022 -9.2657831,5.3921477 -9.2600912,5.3936433 -9.254793,5.3958864 -9.249971,5.3990331 -9.2455346,5.4029118 -9.2373044,5.4118892 -9.2373044,5.4118892 -9.2275299,5.4361261 -9.2236614,5.4484652 -9.220957,5.4610567 -9.2193368,5.4738831 -9.2185304,5.4868859 -9.2182738,5.5131853 -9.2182738,5.5131853 -9.218356,5.5386606 -9.2190246,5.551269 -9.2204463,5.5637225 -9.2228719,5.5759694 -9.2264083,5.5879877 -9.2354629,5.6116164z" transform="matrix(1,0,0,-1,11.075,6.3296138)" fill="rgb(116,116,116)" fill-rule="nonzero" shaper:cutDepth="0.05cm" stroke-linecap="round" stroke-linejoin="round" /><path d="M-9.6070868,5.6611389 L-9.4087922,5.6611389 -9.4087922,5.6611389 -9.4096553,5.6481327 -9.4130895,5.6355591 -9.4130895,5.6355591 -9.4179274,5.6248638 -9.4234412,5.6145739 -9.4300293,5.6049286 -9.4372365,5.5956546 -9.4372365,5.5956546 -9.4604094,5.5719136 -9.4855315,5.5502248 -9.4855315,5.5502248 -9.5032189,5.5355518 -9.5203419,5.520303 -9.5363923,5.5039598 -9.5516297,5.486787 -9.5516297,5.486787 -9.5583141,5.4765706 -9.5637722,5.4658994 -9.5670271,5.4544112 -9.5688188,5.4423803 -9.5688188,5.4423803 -9.5675987,5.4320069 -9.5665259,5.4270183 -9.564898,5.4222676 -9.5625899,5.4178083 -9.5597239,5.4135879 -9.5530622,5.4055455 -9.5530622,5.4055455 -9.54397,5.3989057 -9.5392325,5.3960876 -9.5342654,5.3938715 -9.5235843,5.3913976 -9.5123393,5.3904022 -9.5123393,5.3904022 -9.5005544,5.3914288 -9.4948507,5.3924313 -9.4893735,5.3940208 -9.484184,5.396356 -9.4792427,5.3993344 -9.469774,5.406364 -9.469774,5.406364 -9.4626143,5.4162291 -9.4595921,5.4213737 -9.4572379,5.4267722 -9.4556414,5.4324587 -9.4546353,5.4383698 -9.4536073,5.450566 -9.4157493,5.4466778 -9.4157493,5.4466778 -9.4187787,5.4285496 -9.4209921,5.4198136 -9.4240439,5.4114713 -9.4281732,5.4036351 -9.4332558,5.3962465 -9.4450128,5.3822167 -9.4450128,5.3822167 -9.460542,5.3722176 -9.4685766,5.3680103 -9.4769346,5.3647522 -9.4856583,5.3625674 -9.4946666,5.3612179 -9.5131576,5.3599111 -9.5131576,5.3599111 -9.5319002,5.3613458 -9.5410009,5.3628073 -9.5497768,5.3651616 -9.5581364,5.3686603 -9.56613,5.3731651 -9.5815064,5.3838538 -9.5815064,5.3838538 -9.5921781,5.3968269 -9.5967646,5.4036322 -9.6004518,5.4108202 -9.603046,5.4184732 -9.6047505,5.4265048 -9.6066768,5.443199 -9.6066768,5.443199 -9.6060744,5.4523058 -9.60479,5.4612716 -9.602383,5.4700053 -9.5993106,5.4786014 -9.5993106,5.4786014 -9.594222,5.4884536 -9.5885247,5.4979034 -9.5818993,5.5067395 -9.5747535,5.5152316 -9.5747535,5.5152316 -9.5472827,5.5425551 -9.518069,5.5680284 -9.518069,5.5680284 -9.4963548,5.5864781 -9.4755036,5.6058865 -9.4755036,5.6058865 -9.4671943,5.6153956 -9.4599511,5.6257365 -9.6070868,5.6257365 -9.6070868,5.6611389z" transform="matrix(1,0,0,-1,11.075,6.3296138)" fill="rgb(116,116,116)" fill-rule="nonzero" shaper:cutDepth="0.05cm" stroke-linecap="round" stroke-linejoin="round" /><path d="M-9.1409204,5.6611389 L-8.9426257,5.6611389 -8.9426257,5.6611389 -8.9434888,5.6481327 -8.946923,5.6355591 -8.946923,5.6355591 -8.9517614,5.6248641 -8.9572754,5.6145743 -8.9638633,5.6049289 -8.97107,5.5956546 -8.97107,5.5956546 -8.9942429,5.5719136 -9.019365,5.5502248 -9.019365,5.5502248 -9.0370524,5.5355518 -9.0541754,5.520303 -9.0702258,5.5039598 -9.0854632,5.486787 -9.0854632,5.486787 -9.0921476,5.4765706 -9.0976057,5.4658994 -9.1008606,5.4544112 -9.1026523,5.4423803 -9.1026523,5.4423803 -9.1014327,5.4320066 -9.1003602,5.427018 -9.0987323,5.4222673 -9.0964241,5.417808 -9.093558,5.4135877 -9.0868957,5.4055455 -9.0868957,5.4055455 -9.0778034,5.3989059 -9.0730658,5.3960879 -9.0680987,5.3938718 -9.0574177,5.3913978 -9.0461728,5.3904022 -9.0461728,5.3904022 -9.0343879,5.3914288 -9.0286842,5.3924313 -9.023207,5.3940208 -9.0180175,5.396356 -9.0130762,5.3993344 -9.0036075,5.406364 -9.0036075,5.406364 -8.9964478,5.4162291 -8.9934256,5.4213737 -8.9910714,5.4267722 -8.9894749,5.4324587 -8.9884688,5.4383698 -8.9874408,5.450566 -8.9495828,5.4466778 -8.9495828,5.4466778 -8.9526122,5.4285496 -8.9548256,5.4198136 -8.9578774,5.4114713 -8.9620067,5.4036351 -8.9670893,5.3962465 -8.9788463,5.3822167 -8.9788463,5.3822167 -8.9943756,5.3722178 -9.0024103,5.3680106 -9.0107682,5.3647525 -9.0194919,5.3625676 -9.0285002,5.3612181 -9.0469911,5.3599111 -9.0469911,5.3599111 -9.0657337,5.3613458 -9.0748344,5.3628073 -9.0836103,5.3651616 -9.0919699,5.3686603 -9.0999635,5.3731651 -9.1153399,5.3838538 -9.1153399,5.3838538 -9.1260121,5.3968267 -9.1305988,5.403632 -9.1342862,5.4108199 -9.1368805,5.418473 -9.138585,5.4265047 -9.1405112,5.443199 -9.1405112,5.443199 -9.139909,5.4523059 -9.1386244,5.4612717 -9.1362171,5.4700054 -9.1331441,5.4786014 -9.1331441,5.4786014 -9.1280555,5.4884536 -9.1223582,5.4979034 -9.1157328,5.5067395 -9.108587,5.5152316 -9.108587,5.5152316 -9.0811162,5.5425551 -9.0519025,5.5680284 -9.0519025,5.5680284 -9.0301883,5.5864781 -9.0093371,5.6058865 -9.0093371,5.6058865 -9.0010278,5.6153956 -8.9937846,5.6257365 -9.1409204,5.6257365 -9.1409204,5.6611389z" transform="matrix(1,0,0,-1,11.075,6.3296138)" fill="rgb(116,116,116)" fill-rule="nonzero" shaper:cutDepth="0.05cm" stroke-linecap="round" stroke-linejoin="round" /><path d="M-8.6387374,5.5884923 L-8.6387374,5.5884923 -8.6410304,5.5985436 -8.6443412,5.608089 -8.6495043,5.6167141 -8.6559274,5.6247132 -8.6559274,5.6247132 -8.6633051,5.6296576 -8.6711092,5.6334015 -8.6795915,5.6352355 -8.6884648,5.6359684 -8.6884648,5.6359684 -8.696262,5.6354423 -8.7038575,5.6341616 -8.7111057,5.6315814 -8.7181375,5.6281921 -8.7181375,5.6281921 -8.7242433,5.6238788 -8.7298915,5.6190985 -8.7347801,5.6135428 -8.7392146,5.6075236 -8.7392146,5.6075236 -8.7435922,5.5991024 -8.7474113,5.5904588 -8.7529256,5.5723259 -8.7529256,5.5723259 -8.7570745,5.5499859 -8.7584512,5.5273054 -8.7584512,5.5273054 -8.7582461,5.5199384 -8.7582461,5.5199384 -8.7519093,5.5284006 -8.7448903,5.5361448 -8.7367544,5.5427132 -8.7279593,5.5485877 -8.7279593,5.5485877 -8.7181208,5.5531837 -8.7080109,5.5567481 -8.697451,5.5586017 -8.6866223,5.5594336 -8.6866223,5.5594336 -8.668879,5.5573172 -8.6603461,5.5554683 -8.6522196,5.5526704 -8.6445897,5.5487136 -8.6373656,5.5438092 -8.623594,5.5324214 -8.623594,5.5324214 -8.6122291,5.5164509 -8.6074155,5.5081419 -8.6036436,5.4994447 -8.6010778,5.4902979 -8.5994611,5.4807975 -8.5978095,5.4612072 -8.5978095,5.4612072 -8.5995312,5.440971 -8.6012139,5.4311614 -8.6038828,5.4217222 -8.6078046,5.4127534 -8.6128077,5.4041905 -8.6246173,5.387742 -8.6246173,5.387742 -8.6394579,5.3758657 -8.6472294,5.3707736 -8.6554225,5.3666967 -8.6641241,5.3638447 -8.6732369,5.3619832 -8.6921479,5.3599111 -8.6921479,5.3599111 -8.7063068,5.3611236 -8.7200271,5.3638192 -8.7330138,5.3689964 -8.7455585,5.3756683 -8.7455585,5.3756683 -8.7571369,5.3849696 -8.7625148,5.3899594 -8.7673989,5.3953562 -8.7716958,5.4012373 -8.7755226,5.4075058 -8.7823932,5.4206887 -8.7823932,5.4206887 -8.788512,5.4412815 -8.7910079,5.4516707 -8.7928391,5.4621692 -8.7946408,5.4834725 -8.7950809,5.5049998 -8.7950809,5.5049998 -8.7945478,5.5282974 -8.7927065,5.5514039 -8.7908961,5.5628271 -8.7884735,5.5741608 -8.7825982,5.5966778 -8.7825982,5.5966778 -8.7759535,5.6115675 -8.7721909,5.618691 -8.7679001,5.6254289 -8.7629386,5.6316771 -8.7573987,5.6375032 -8.7453544,5.6484514 -8.7453544,5.6484514 -8.7319369,5.6561309 -8.725053,5.6594105 -8.7179589,5.662018 -8.7106144,5.6638249 -8.7030695,5.6649909 -8.6876456,5.6662549 -8.6876456,5.6662549 -8.6720102,5.6650146 -8.6644002,5.6637977 -8.6570394,5.6618645 -8.6499955,5.6590208 -8.6432257,5.6553896 -8.6301429,5.6468143 -8.6301429,5.6468143 -8.6198608,5.6348378 -8.6153537,5.6285334 -8.6116068,5.6218498 -8.6087362,5.6147293 -8.6065536,5.6072657 -8.6033351,5.5917665 -8.6387374,5.5884923z M-8.737168,5.4090243 L-8.737168,5.4090243 -8.7284453,5.40128 -8.7238468,5.3979286 -8.7189637,5.3952019 -8.7137278,5.39325 -8.7081983,5.3919427 -8.6966502,5.3904022 -8.6966502,5.3904022 -8.6844439,5.3921345 -8.6786042,5.3935718 -8.6730807,5.3956942 -8.6679319,5.3986288 -8.6630821,5.4022115 -8.6538808,5.4104568 -8.6538808,5.4104568 -8.6458648,5.4222041 -8.6424677,5.4282977 -8.639803,5.4346552 -8.6379882,5.4413188 -8.6368427,5.4482236 -8.6356675,5.4624349 -8.6356675,5.4624349 -8.6368089,5.4752902 -8.637903,5.4815203 -8.6396251,5.4875135 -8.642141,5.4932072 -8.6453359,5.4986447 -8.6528575,5.5090926 -8.6528575,5.5090926 -8.6622561,5.5166415 -8.6671768,5.5198858 -8.6723632,5.5224938 -8.6778725,5.5243286 -8.6836446,5.525534 -8.6956269,5.526896 -8.6956269,5.526896 -8.7074621,5.5255896 -8.7131527,5.5244065 -8.7185707,5.5225875 -8.7236507,5.5199796 -8.7284495,5.5167153 -8.7375781,5.5090926 -8.7375781,5.5090926 -8.7450565,5.4978235 -8.748195,5.4919795 -8.7506143,5.4858847 -8.7522279,5.479509 -8.7532167,5.4729155 -8.754153,5.4593654 -8.754153,5.4593654 -8.7531513,5.4456413 -8.7521211,5.4389651 -8.7504555,5.4325119 -8.7479742,5.426345 -8.7447729,5.4204308 -8.737168,5.4090243z" transform="matrix(1,0,0,-1,11.075,6.3296138)" fill="rgb(116,116,116)" fill-rule="nonzero" shaper:cutDepth="0.05cm" stroke-linecap="round" stroke-linejoin="round" /><path d="M-8.3178641,5.356023 L-8.3473317,5.356023 -8.2605655,5.6662549 -8.2308928,5.6662549 -8.3178641,5.356023z" transform="matrix(1,0,0,-1,11.075,6.3296138)" fill="rgb(116,116,116)" fill-rule="nonzero" shaper:cutDepth="0.05cm" stroke-linecap="round" stroke-linejoin="round" /><path d="M-7.7929666,5.4276464 L-7.7929666,5.4276464 -7.798709,5.4135328 -7.8057063,5.4002478 -7.8100418,5.394158 -7.8149034,5.3884155 -7.825504,5.37751 -7.825504,5.37751 -7.8380075,5.3697795 -7.8444538,5.3665008 -7.8511335,5.3639257 -7.8580848,5.3621689 -7.8652501,5.3610577 -7.8799378,5.3599111 -7.8799378,5.3599111 -7.8909566,5.3605598 -7.901748,5.3621666 -7.9121463,5.3654309 -7.9222981,5.3697337 -7.9222981,5.3697337 -7.9310826,5.3753806 -7.9391693,5.3817793 -7.9461123,5.3894103 -7.9523799,5.3977692 -7.9523799,5.3977692 -7.9583055,5.4083849 -7.9635077,5.4193065 -7.9675776,5.4307069 -7.9710023,5.4423803 -7.9710023,5.4423803 -7.974209,5.4599253 -7.976504,5.477564 -7.9774866,5.4953379 -7.9777553,5.5131853 -7.9777553,5.5131853 -7.9772685,5.5348208 -7.9756522,5.5563031 -7.9719803,5.5775063 -7.9669091,5.5985196 -7.9669091,5.5985196 -7.9611866,5.6126442 -7.9541948,5.6259318 -7.9498543,5.6320186 -7.9449865,5.6377577 -7.9343717,5.6486559 -7.9343717,5.6486559 -7.9218785,5.6564104 -7.915435,5.6596953 -7.9087554,5.6622699 -7.9018022,5.6640217 -7.8946337,5.6651259 -7.8799378,5.6662549 -7.8799378,5.6662549 -7.8603124,5.6640607 -7.8509331,5.6620291 -7.8420739,5.6588762 -7.8338653,5.6543209 -7.8262039,5.648586 -7.811793,5.6351499 -7.811793,5.6351499 -7.797326,5.6065576 -7.791454,5.5918947 -7.7871816,5.5768009 -7.7845084,5.5612763 -7.7830419,5.5454266 -7.7821204,5.5131853 -7.7821204,5.5131853 -7.7825958,5.4914971 -7.7842042,5.4699627 -7.7878791,5.4487087 -7.7929666,5.4276464z M-7.8371684,5.6116164 L-7.8371684,5.6116164 -7.8457953,5.6214396 -7.850449,5.6257358 -7.8555111,5.6292935 -7.8610928,5.6319116 -7.8671244,5.6337162 -7.8799378,5.6359684 -7.8799378,5.6359684 -7.8927425,5.6336926 -7.8987619,5.6318709 -7.9043222,5.6292296 -7.9093528,5.6256421 -7.9139672,5.6213116 -7.9225022,5.6114117 -7.9225022,5.6114117 -7.9316536,5.5878565 -7.9352303,5.5758706 -7.9376858,5.5636509 -7.9391266,5.5512196 -7.9398064,5.5386297 -7.9398973,5.5131853 -7.9398973,5.5131853 -7.939823,5.487686 -7.9391499,5.4750689 -7.9377137,5.4626111 -7.9352601,5.4503654 -7.9316788,5.438355 -7.9225022,5.4147542 -7.9225022,5.4147542 -7.9138499,5.4048789 -7.9091779,5.4005677 -7.9040909,5.3970081 -7.8984778,5.3944013 -7.8924127,5.3926131 -7.8795287,5.3904022 -7.8795287,5.3904022 -7.8674886,5.3921477 -7.8617967,5.3936433 -7.8564986,5.3958864 -7.8516765,5.3990331 -7.8472401,5.4029118 -7.83901,5.4118892 -7.83901,5.4118892 -7.8292355,5.4361261 -7.825367,5.4484653 -7.8226625,5.4610567 -7.8210421,5.4738831 -7.8202355,5.4868859 -7.8199784,5.5131853 -7.8199784,5.5131853 -7.8200605,5.5386607 -7.8207291,5.5512692 -7.8221508,5.5637227 -7.8245765,5.5759696 -7.8281132,5.5879878 -7.8371684,5.6116164z" transform="matrix(1,0,0,-1,11.075,6.3296138)" fill="rgb(116,116,116)" fill-rule="nonzero" shaper:cutDepth="0.05cm" stroke-linecap="round" stroke-linejoin="round" /><path d="M-9.2663638,4.8929261 L-9.4832808,4.8929261 -9.4832808,4.9283286 -9.3060643,4.9283286 -9.3060643,5.0202112 -9.4720256,5.0202112 -9.4720256,5.0554091 -9.3060643,5.0554091 -9.3060643,5.1575236 -9.4902389,5.1575236 -9.4902389,5.1929261 -9.2663638,5.1929261 -9.2663638,4.8929261z" transform="matrix(1,0,0,-1,11.075,6.3296138)" fill="rgb(116,116,116)" fill-rule="nonzero" shaper:cutDepth="0.05cm" stroke-linecap="round" stroke-linejoin="round" /><path d="M-8.9860093,4.8929261 L-9.0991742,4.8929261 -9.0991742,4.8929261 -9.1220568,4.8934123 -9.1448085,4.895791 -9.1448085,4.895791 -9.1546129,4.8979182 -9.1641311,4.9007827 -9.1731488,4.9049368 -9.1818482,4.9099111 -9.1818482,4.9099111 -9.1891553,4.9160178 -9.1957226,4.9227441 -9.2011018,4.9304657 -9.2057912,4.9387651 -9.2057912,4.9387651 -9.2097434,4.948622 -9.2127832,4.9586863 -9.2143312,4.9690896 -9.2149999,4.9796928 -9.2149999,4.9796928 -9.213217,4.9975422 -9.2116003,5.006192 -9.2091133,5.014512 -9.2055462,5.0224225 -9.2010797,5.0299921 -9.1906478,5.0445632 -9.1906478,5.0445632 -9.1707818,5.0575227 -9.1604342,5.062766 -9.1496009,5.0665608 -9.1382868,5.0689219 -9.1266103,5.0702022 -9.1026532,5.0709616 -9.0257089,5.0709616 -9.0257089,5.1929261 -8.9860093,5.1929261 -8.9860093,4.8929261z M-9.1032674,5.0355591 L-9.1032674,5.0355591 -9.1178465,5.0351324 -9.124994,5.0344317 -9.1319711,5.0331463 -9.1387221,5.0310856 -9.1452457,5.0282451 -9.1579053,5.0212344 -9.1579053,5.0212344 -9.1650707,5.0124516 -9.1680992,5.0078303 -9.1704631,5.0029333 -9.1720636,4.9977198 -9.1730655,4.9922579 -9.174072,4.9809206 -9.174072,4.9809206 -9.1734269,4.9723505 -9.1718467,4.9640663 -9.1686537,4.9562754 -9.1644542,4.9487924 -9.1644542,4.9487924 -9.1593134,4.9427946 -9.1535746,4.9376372 -9.1468336,4.9338882 -9.1394879,4.9309888 -9.1394879,4.9309888 -9.1210518,4.9286641 -9.1024482,4.9283286 -9.0257089,4.9283286 -9.0257089,5.0355591 -9.1032674,5.0355591z" transform="matrix(1,0,0,-1,11.075,6.3296138)" fill="rgb(116,116,116)" fill-rule="nonzero" shaper:cutDepth="0.05cm" stroke-linecap="round" stroke-linejoin="round" /><path d="M-8.5268008,4.9283286 L-8.4279601,4.9283286 -8.4279601,4.8929261 -8.6657502,4.8929261 -8.6657502,4.9283286 -8.5665004,4.9283286 -8.5665004,5.1929261 -8.5268008,5.1929261 -8.5268008,4.9283286z" transform="matrix(1,0,0,-1,11.075,6.3296138)" fill="rgb(116,116,116)" fill-rule="nonzero" shaper:cutDepth="0.05cm" stroke-linecap="round" stroke-linejoin="round" /><path d="M-7.9448087,4.9283286 L-7.845968,4.9283286 -7.845968,4.8929261 -8.0837581,4.8929261 -8.0837581,4.9283286 -7.9845082,4.9283286 -7.9845082,5.1929261 -7.9448087,5.1929261 -7.9448087,4.9283286z" transform="matrix(1,0,0,-1,11.075,6.3296138)" fill="rgb(116,116,116)" fill-rule="nonzero" shaper:cutDepth="0.05cm" stroke-linecap="round" stroke-linejoin="round" /><path d="M-7.2404429,4.8929261 L-7.3734576,4.8929261 -7.3734576,4.8929261 -7.3889651,4.8931951 -7.4043426,4.8943473 -7.4194779,4.8971424 -7.4344403,4.9011116 -7.4344403,4.9011116 -7.4444484,4.9062526 -7.4535332,4.9124834 -7.461109,4.9204953 -7.467796,4.9295564 -7.467796,4.9295564 -7.4731049,4.9402559 -7.4772128,4.9512884 -7.4793365,4.9628713 -7.4802796,4.9747815 -7.4802796,4.9747815 -7.4787647,4.9896527 -7.4773919,4.9968496 -7.4752807,5.0037603 -7.4722531,5.0103157 -7.4684628,5.0165752 -7.4596107,5.0286014 -7.4596107,5.0286014 -7.4453965,5.0393885 -7.4379671,5.0440756 -7.4301533,5.0479206 -7.4219256,5.0508585 -7.4133811,5.0531021 -7.3957641,5.0564322 -7.3957641,5.0564322 -7.4082527,5.0630864 -7.4197061,5.0713708 -7.4197061,5.0713708 -7.4288156,5.0806218 -7.4374315,5.0902829 -7.4526526,5.1112754 -7.5048358,5.1929261 -7.4549043,5.1929261 -7.4152038,5.1305113 -7.4152038,5.1305113 -7.4013313,5.1095277 -7.3865554,5.0891744 -7.3865554,5.0891744 -7.3772206,5.0783263 -7.3662955,5.0691198 -7.3662955,5.0691198 -7.3576288,5.0643634 -7.3482873,5.0611389 -7.3482873,5.0611389 -7.3372744,5.0599168 -7.3261868,5.0597064 -7.2801425,5.0597064 -7.2801425,5.1929261 -7.2404429,5.1929261 -7.2404429,4.8929261z M-7.3654773,5.0253272 L-7.3654773,5.0253272 -7.3870057,5.0243155 -7.3975767,5.0224361 -7.4080417,5.019802 -7.4080417,5.019802 -7.41489,5.0166028 -7.4211958,5.012708 -7.4265712,5.0076204 -7.4313704,5.0017938 -7.4313704,5.0017938 -7.4347215,4.9954402 -7.4373359,4.9888695 -7.4387161,4.9819352 -7.4393517,4.9747815 -7.4393517,4.9747815 -7.4381713,4.9648243 -7.4371221,4.9600506 -7.435522,4.9555229 -7.4332436,4.951298 -7.4304062,4.9473227 -7.4237992,4.9397883 -7.4237992,4.9397883 -7.4125831,4.9332364 -7.406793,4.9305529 -7.4007876,4.9285702 -7.3881654,4.9265947 -7.3750951,4.9260775 -7.2801425,4.9260775 -7.2801425,5.0253272 -7.3654773,5.0253272z" transform="matrix(1,0,0,-1,11.075,6.3296138)" fill="rgb(116,116,116)" fill-rule="nonzero" shaper:cutDepth="0.05cm" stroke-linecap="round" stroke-linejoin="round" /><path d="M-6.7949454,5.0977692 L-6.7949454,5.0977692 -6.7879022,5.1190322 -6.7836885,5.1292381 -6.7786442,5.1389334 -6.7725404,5.1479773 -6.7655145,5.1564542 -6.7499244,5.1724623 -6.7499244,5.1724623 -6.7316923,5.1836095 -6.7223021,5.1883516 -6.7125832,5.1920963 -6.7024777,5.1946685 -6.6920653,5.1963101 -6.6707294,5.1980421 -6.6707294,5.1980421 -6.6499833,5.1969639 -6.6397718,5.1958047 -6.6297542,5.1939013 -6.6199873,5.1910355 -6.6104457,5.1873046 -6.5917394,5.1783967 -6.5917394,5.1783967 -6.5771914,5.1665053 -6.5704384,5.1601351 -6.5643104,5.1532555 -6.5589203,5.1457745 -6.5541176,5.1378149 -6.5454909,5.121098 -6.5454909,5.121098 -6.5387536,5.1015447 -6.5335587,5.0816869 -6.5308968,5.0613289 -6.5297334,5.0406751 -6.5297334,5.0406751 -6.5308716,5.0195204 -6.5319871,5.0090654 -6.5337582,4.9987573 -6.5363627,4.9886358 -6.5396873,4.9786756 -6.5475375,4.9590243 -6.5475375,4.9590243 -6.5574978,4.9430924 -6.5629472,4.9355795 -6.5689599,4.9286101 -6.5756692,4.922313 -6.5829561,4.9165733 -6.5984923,4.9060229 -6.5984923,4.9060229 -6.6158942,4.8982484 -6.6247347,4.8949154 -6.6337426,4.8922474 -6.6429524,4.8903816 -6.6523254,4.8891642 -6.6713435,4.8878101 -6.6713435,4.8878101 -6.6915889,4.8893015 -6.7014939,4.890748 -6.7111377,4.8930354 -6.7204505,4.896389 -6.7294785,4.9006595 -6.7470595,4.9107296 -6.7470595,4.9107296 -6.7614718,4.9243473 -6.7680281,4.9315924 -6.7738048,4.939361 -6.7786628,4.9477464 -6.7827905,4.9566221 -6.789829,4.9751907 -6.7507436,4.9843995 -6.7507436,4.9843995 -6.7456457,4.9708608 -6.7392749,4.9581549 -6.7352306,4.9523639 -6.7306213,4.9469426 -6.7204568,4.9367187 -6.7204568,4.9367187 -6.7088621,4.9301052 -6.7029073,4.9273088 -6.6967637,4.9251242 -6.6838717,4.9227157 -6.6705253,4.9217801 -6.6705253,4.9217801 -6.6551323,4.9228224 -6.6475863,4.9238538 -6.6402209,4.9254977 -6.6330857,4.9279219 -6.6261502,4.9310233 -6.6126124,4.9383558 -6.6126124,4.9383558 -6.6019975,4.947693 -6.5971161,4.9526735 -6.592746,4.9580281 -6.588994,4.9638353 -6.5857428,4.9700089 -6.580075,4.982967 -6.580075,4.982967 -6.5760944,4.9970761 -6.573003,5.011331 -6.5713898,5.0258282 -6.5706613,5.0404704 -6.5706613,5.0404704 -6.5713376,5.0575552 -6.5731084,5.0744535 -6.5767978,5.0910247 -6.5817115,5.1073872 -6.5817115,5.1073872 -6.5879651,5.120046 -6.5914998,5.1260386 -6.5955241,5.131627 -6.6001626,5.1367083 -6.6053202,5.141361 -6.6165006,5.149952 -6.6165006,5.149952 -6.6285672,5.1559077 -6.6410004,5.1605404 -6.6540445,5.162968 -6.6674554,5.1640721 -6.6674554,5.1640721 -6.6827766,5.1627318 -6.6902366,5.1614821 -6.6974557,5.159537 -6.704373,5.1567202 -6.7110355,5.1531677 -6.7239358,5.144836 -6.7239358,5.144836 -6.7351409,5.1324662 -6.7401366,5.1259392 -6.7444055,5.1190027 -6.7478564,5.1116051 -6.7506722,5.1038496 -6.7552449,5.0877419 -6.7949454,5.0977692z" transform="matrix(1,0,0,-1,11.075,6.3296138)" fill="rgb(116,116,116)" fill-rule="nonzero" shaper:cutDepth="0.05cm" stroke-linecap="round" stroke-linejoin="round" /><path d="M-6.0040175,4.8929261 L-6.1165683,4.8929261 -6.1165683,4.8929261 -6.1306666,4.8933448 -6.144594,4.8947206 -6.1582106,4.8978368 -6.1716163,4.9021348 -6.1716163,4.9021348 -6.1812766,4.9073754 -6.1901076,4.9135771 -6.1975494,4.9213884 -6.2041537,4.9301703 -6.2041537,4.9301703 -6.209071,4.9394641 -6.2129394,4.9490699 -6.2150267,4.9592055 -6.2160232,4.9696655 -6.2160232,4.9696655 -6.2151785,4.9792267 -6.2133647,4.98851 -6.209951,4.9973346 -6.2055861,5.0058865 -6.2055861,5.0058865 -6.1990813,5.0143008 -6.1918021,5.0218364 -6.1832918,5.0279748 -6.174072,5.0333081 -6.174072,5.0333081 -6.1860451,5.0377922 -6.1972054,5.0435035 -6.2022466,5.047173 -6.2069553,5.0513446 -6.2158181,5.060525 -6.2158181,5.060525 -6.222157,5.0710107 -6.2270247,5.0819794 -6.2294937,5.0937356 -6.2305524,5.1059547 -6.2305524,5.1059547 -6.2298748,5.1161399 -6.2283448,5.1261286 -6.2253807,5.1357871 -6.2215478,5.1452454 -6.2215478,5.1452454 -6.2171947,5.1530965 -6.2122522,5.1604778 -6.2062791,5.1670379 -6.1996514,5.1730761 -6.1996514,5.1730761 -6.1919328,5.1779363 -6.183919,5.1821552 -6.1754435,5.1853708 -6.1667048,5.1880148 -6.1667048,5.1880148 -6.1427126,5.1919173 -6.1184108,5.1929261 -6.0040175,5.1929261 -6.0040175,4.8929261z M-6.1184108,5.1575236 L-6.1184108,5.1575236 -6.1319487,5.1573295 -6.1454226,5.1560911 -6.1454226,5.1560911 -6.1572765,5.1530809 -6.1683423,5.1479056 -6.1683423,5.1479056 -6.1769933,5.1406128 -6.1834857,5.1313299 -6.1834857,5.1313299 -6.186071,5.1252489 -6.1880395,5.1190207 -6.1894195,5.1059547 -6.1894195,5.1059547 -6.1888258,5.0982221 -6.187402,5.0907393 -6.1845544,5.083685 -6.1808249,5.076896 -6.1808249,5.076896 -6.1758681,5.0711397 -6.1703431,5.0661607 -6.1638873,5.0624553 -6.156882,5.0595018 -6.156882,5.0595018 -6.1460877,5.057022 -6.1351994,5.0552752 -6.1130893,5.0543858 -6.0437171,5.0543858 -6.0437171,5.1575236 -6.1184108,5.1575236z M-6.1085879,5.0189834 L-6.1085879,5.0189834 -6.1276453,5.0184715 -6.1464459,5.0155045 -6.1464459,5.0155045 -6.1529872,5.0130555 -6.1590755,5.0099314 -6.1643707,5.0056252 -6.1691606,5.0005659 -6.1691606,5.0005659 -6.1726027,4.9944761 -6.1751954,4.9881262 -6.1764494,4.9813665 -6.1769368,4.9743722 -6.1769368,4.9743722 -6.1764418,4.9674634 -6.1752551,4.9607471 -6.1728822,4.9543606 -6.1697747,4.9481784 -6.1697747,4.9481784 -6.1656592,4.942978 -6.1609947,4.9384977 -6.1554228,4.9352075 -6.1493108,4.9326259 -6.1493108,4.9326259 -6.1380249,4.9304174 -6.1266607,4.928933 -6.1036765,4.9283286 -6.0437171,4.9283286 -6.0437171,5.0189834 -6.1085879,5.0189834z" transform="matrix(1,0,0,-1,11.075,6.3296138)" fill="rgb(116,116,116)" fill-rule="nonzero" shaper:cutDepth="0.05cm" stroke-linecap="round" stroke-linejoin="round" /><path d="M2.3611108,-2.7566574 L2.2894875,-2.7568233 2.1587014,-2.3938918 2.1587014,-2.3938918 2.1447127,-2.3532408 2.1322501,-2.3120975 2.1322501,-2.3120975 2.1197198,-2.3533328 2.1054956,-2.394015 1.9712756,-2.7575601 1.9037451,-2.7577164 2.0983576,-2.2572645 2.1662292,-2.2571073 2.3611108,-2.7566574z" transform="matrix(1,0,0,-1,11.075,6.3296138)" fill="rgb(116,116,116)" fill-rule="nonzero" shaper:cutDepth="0.05cm" stroke-linecap="round" stroke-linejoin="round" /><path d="M1.3774846,-2.758935 L1.1557935,-2.7594483 1.1557935,-2.7594483 1.1299468,-2.7590598 1.1043136,-2.7571989 1.0916429,-2.7552615 1.0790774,-2.7525988 1.054125,-2.7460411 1.054125,-2.7460411 1.0374248,-2.7375118 1.0295542,-2.7326783 1.0222592,-2.7271623 1.0156535,-2.7208288 1.0096018,-2.7138383 0.9984219,-2.698762 0.9984219,-2.698762 0.9895335,-2.6809498 0.9857143,-2.6718689 0.9826451,-2.6625781 0.9804844,-2.653033 0.9790609,-2.6432817 0.9774426,-2.6234353 0.9774426,-2.6234353 0.9799093,-2.598644 0.9821693,-2.5866437 0.9856611,-2.5751178 0.9906817,-2.5641805 0.9969749,-2.5537334 1.0116825,-2.5336559 1.0116825,-2.5336559 1.0353313,-2.5156227 1.0476957,-2.5077821 1.0607039,-2.5013437 1.0744054,-2.4964154 1.0886376,-2.492643 1.1179866,-2.4870248 1.1179866,-2.4870248 1.0971459,-2.475983 1.0874026,-2.4693904 1.0780246,-2.4622197 1.0780246,-2.4622197 1.0628068,-2.4468362 1.0484098,-2.4307675 1.0353117,-2.4136148 1.0229596,-2.3958394 0.9356732,-2.2599566 1.0188928,-2.2597639 1.0852997,-2.363635 1.0852997,-2.363635 1.1085015,-2.3985546 1.1332082,-2.4324192 1.1332082,-2.4324192 1.1407874,-2.4416698 1.1488075,-2.4504631 1.1576425,-2.4584114 1.1670508,-2.4657652 1.1670508,-2.4657652 1.1815136,-2.473659 1.1970952,-2.4789972 1.1970952,-2.4789972 1.2154551,-2.4809916 1.2339354,-2.4812994 1.3106747,-2.4811217 1.3101606,-2.2590895 1.3763269,-2.2589363 1.3774846,-2.758935z M1.168584,-2.5387496 L1.168584,-2.5387496 1.1505756,-2.5391458 1.132707,-2.5405189 1.1150957,-2.5436921 1.0976642,-2.5481226 1.0976642,-2.5481226 1.0862627,-2.5534809 1.075768,-2.5599964 1.0668286,-2.5684966 1.0588525,-2.5782262 1.0588525,-2.5782262 1.0532923,-2.5888285 1.0489607,-2.5997898 1.0466873,-2.6113522 1.0456553,-2.6232773 1.0456553,-2.6232773 1.047661,-2.6398681 1.0494282,-2.6478201 1.0521126,-2.6553601 1.055926,-2.6623928 1.0606705,-2.6690072 1.0717111,-2.6815391 1.0717111,-2.6815391 1.0904297,-2.6924158 1.10009,-2.6968661 1.1101067,-2.7001475 1.12049,-2.7022254 1.1311513,-2.7033911 1.1529371,-2.7042024 1.3111903,-2.703836 1.3108073,-2.5384203 1.168584,-2.5387496z" transform="matrix(1,0,0,-1,11.075,6.3296138)" fill="rgb(116,116,116)" fill-rule="nonzero" shaper:cutDepth="0.05cm" stroke-linecap="round" stroke-linejoin="round" /><path d="M0.2808297,-2.70247 L0.4455634,-2.7020886 0.4457,-2.7610925 0.0493845,-2.7620101 0.0492479,-2.7030062 0.2146635,-2.7026232 0.2136424,-2.2616284 0.2798086,-2.2614752 0.2808297,-2.70247z" transform="matrix(1,0,0,-1,11.075,6.3296138)" fill="rgb(116,116,116)" fill-rule="nonzero" shaper:cutDepth="0.05cm" stroke-linecap="round" stroke-linejoin="round" /><path d="M-0.5341746,-2.7633613 L-0.6003411,-2.7635145 -0.6014988,-2.2635159 -0.5353323,-2.2633626 -0.5341746,-2.7633613z" transform="matrix(1,0,0,-1,11.075,6.3296138)" fill="rgb(116,116,116)" fill-rule="nonzero" shaper:cutDepth="0.05cm" stroke-linecap="round" stroke-linejoin="round" /><path d="M-1.4559541,-2.5202698 L-1.6677538,-2.5211014 -1.6681834,-2.335563 -1.6681834,-2.335563 -1.6446147,-2.3181791 -1.6325716,-2.3099312 -1.6202178,-2.3022159 -1.6074743,-2.2951692 -1.5944011,-2.2886877 -1.5677054,-2.2766672 -1.5677054,-2.2766672 -1.5417255,-2.2684336 -1.5286316,-2.2648798 -1.5154129,-2.2620016 -1.502041,-2.2599522 -1.4885435,-2.2585834 -1.4613388,-2.2569802 -1.4613388,-2.2569802 -1.4265011,-2.2591567 -1.4093023,-2.2611838 -1.3923675,-2.2643376 -1.3757615,-2.268895 -1.3594308,-2.2746268 -1.327228,-2.2880476 -1.327228,-2.2880476 -1.2995646,-2.3059354 -1.2865713,-2.3157145 -1.2745841,-2.3264958 -1.2638304,-2.3385059 -1.2540891,-2.3515245 -1.2362936,-2.3792425 -1.2362936,-2.3792425 -1.2229739,-2.4112511 -1.2172805,-2.4274831 -1.2127468,-2.4439886 -1.2095936,-2.4608194 -1.2075451,-2.4779106 -1.2052894,-2.5125271 -1.2052894,-2.5125271 -1.2074821,-2.5477457 -1.2094778,-2.5651554 -1.2125526,-2.5823256 -1.2169602,-2.5992001 -1.2224704,-2.6158299 -1.2353288,-2.6486816 -1.2353288,-2.6486816 -1.25206,-2.6771506 -1.2613005,-2.6905653 -1.2715909,-2.7029963 -1.2831902,-2.7142006 -1.295886,-2.7243775 -1.3231051,-2.7430187 -1.3231051,-2.7430187 -1.354714,-2.7564875 -1.3707586,-2.7622203 -1.3870914,-2.7667514 -1.4037622,-2.7698727 -1.4207011,-2.7718761 -1.4550256,-2.7740201 -1.4550256,-2.7740201 -1.4800983,-2.7728841 -1.4925364,-2.7717775 -1.5048566,-2.7700246 -1.5170282,-2.7674566 -1.529073,-2.7641941 -1.5529515,-2.7565114 -1.5529515,-2.7565114 -1.5724211,-2.7474677 -1.5817894,-2.7424318 -1.5907176,-2.7367791 -1.5990881,-2.7303442 -1.6069787,-2.7232365 -1.6219596,-2.707899 -1.6219596,-2.707899 -1.634466,-2.6888764 -1.6401814,-2.6791102 -1.6452528,-2.6690388 -1.6495989,-2.6586236 -1.6533814,-2.6479413 -1.660007,-2.6261314 -1.6003589,-2.6096222 -1.6003589,-2.6096222 -1.5951383,-2.6254781 -1.5889927,-2.6408908 -1.5811798,-2.6555046 -1.5722526,-2.6695846 -1.5722526,-2.6695846 -1.5619114,-2.6804507 -1.5506528,-2.6900698 -1.5379508,-2.6977272 -1.5244231,-2.7042624 -1.5244231,-2.7042624 -1.5076652,-2.7099912 -1.4906434,-2.7143578 -1.4731949,-2.7165233 -1.4554976,-2.7174043 -1.4554976,-2.7174043 -1.4353985,-2.7165178 -1.4155589,-2.7142418 -1.3961758,-2.7095232 -1.3770852,-2.7032391 -1.3770852,-2.7032391 -1.362333,-2.6961928 -1.348315,-2.6880752 -1.3355693,-2.6781014 -1.3236222,-2.6669625 -1.3236222,-2.6669625 -1.3143755,-2.6554826 -1.3059045,-2.6435138 -1.2987373,-2.6307234 -1.292359,-2.6174357 -1.292359,-2.6174357 -1.2842066,-2.5929222 -1.2807248,-2.5805528 -1.2779562,-2.5680483 -1.2760408,-2.5553822 -1.2748106,-2.5425862 -1.2734923,-2.5167778 -1.2734923,-2.5167778 -1.2748418,-2.4878691 -1.2762349,-2.4735696 -1.2784897,-2.4594559 -1.2818569,-2.4455821 -1.2862183,-2.4319226 -1.2966027,-2.404962 -1.2966027,-2.404962 -1.3096891,-2.3844922 -1.3168677,-2.3749006 -1.3248087,-2.366081 -1.3336889,-2.3582124 -1.3433444,-2.3511286 -1.363947,-2.3382691 -1.363947,-2.3382691 -1.3864505,-2.3290971 -1.397851,-2.3251544 -1.4094302,-2.3219837 -1.4212272,-2.3197547 -1.4332022,-2.318295 -1.4574488,-2.3166575 -1.4574488,-2.3166575 -1.4789622,-2.318018 -1.5001756,-2.3209025 -1.5208921,-2.3263105 -1.5413126,-2.3332227 -1.5413126,-2.3332227 -1.5577993,-2.3404412 -1.5737852,-2.3485131 -1.5888572,-2.3581423 -1.603304,-2.3688371 -1.6030884,-2.4619474 -1.4560899,-2.461607 -1.4559541,-2.5202698z" transform="matrix(1,0,0,-1,11.075,6.3296138)" fill="rgb(116,116,116)" fill-rule="nonzero" shaper:cutDepth="0.05cm" stroke-linecap="round" stroke-linejoin="round" /><path d="M-2.8189571,-2.7686516 L-2.819626,-2.4797711 -2.819626,-2.4797711 -2.8189751,-2.449299 -2.8180902,-2.4341473 -2.816534,-2.4190967 -2.8140957,-2.4041791 -2.810818,-2.3893879 -2.8028496,-2.3600183 -2.8028496,-2.3600183 -2.7916538,-2.3383748 -2.7853256,-2.3281678 -2.7781213,-2.3186982 -2.7698787,-2.3101026 -2.7608077,-2.3022044 -2.7412849,-2.28757 -2.7412849,-2.28757 -2.7135817,-2.2748741 -2.6994673,-2.2695689 -2.685039,-2.2655099 -2.6702656,-2.2628205 -2.6552264,-2.2611857 -2.6247053,-2.2596739 -2.6247053,-2.2596739 -2.5949083,-2.260878 -2.5801786,-2.2622503 -2.5656515,-2.2645468 -2.5513874,-2.268043 -2.537362,-2.2726287 -2.5097108,-2.2836231 -2.5097108,-2.2836231 -2.4894992,-2.297202 -2.4801102,-2.3046467 -2.4715814,-2.3128777 -2.464111,-2.3220764 -2.4575128,-2.3320724 -2.4457702,-2.3533934 -2.4457702,-2.3533934 -2.4366851,-2.3840564 -2.4329369,-2.3995199 -2.430132,-2.41514 -2.4283163,-2.4309243 -2.4272528,-2.4468336 -2.4263799,-2.4788605 -2.425711,-2.767741 -2.4918773,-2.7678942 -2.4925454,-2.4793548 -2.4925454,-2.4793548 -2.4929096,-2.4549399 -2.4945879,-2.4307101 -2.496328,-2.418722 -2.4987377,-2.4068283 -2.5047052,-2.3832026 -2.5047052,-2.3832026 -2.5122866,-2.368868 -2.5165649,-2.3621298 -2.5214282,-2.3559065 -2.5270024,-2.3503088 -2.5331551,-2.3452201 -2.5464246,-2.3358912 -2.5464246,-2.3358912 -2.5637357,-2.3284818 -2.5725295,-2.3253606 -2.5814888,-2.3229389 -2.5906368,-2.3213144 -2.5999322,-2.3203125 -2.6187688,-2.3193465 -2.6187688,-2.3193465 -2.6472227,-2.3206454 -2.6610637,-2.3223951 -2.6744416,-2.325465 -2.6872081,-2.3302774 -2.6993797,-2.3367858 -2.7111488,-2.3444413 -2.7227168,-2.3526704 -2.7227168,-2.3526704 -2.7309084,-2.3673729 -2.7384517,-2.3822555 -2.7446983,-2.3974985 -2.7490826,-2.4132591 -2.7517131,-2.429507 -2.7530267,-2.446121 -2.753459,-2.4799589 -2.7527909,-2.7684984 -2.8189571,-2.7686516z" transform="matrix(1,0,0,-1,11.075,6.3296138)" fill="rgb(116,116,116)" fill-rule="nonzero" shaper:cutDepth="0.05cm" stroke-linecap="round" stroke-linejoin="round" /><path d="M-3.4345761,-2.770077 L-3.6562671,-2.7705903 -3.6562671,-2.7705903 -3.6821138,-2.7702018 -3.7077471,-2.7683409 -3.7204178,-2.7664035 -3.7329833,-2.7637408 -3.7579358,-2.7571831 -3.7579358,-2.7571831 -3.7746361,-2.7486539 -3.7825067,-2.7438204 -3.7898017,-2.7383044 -3.7964074,-2.731971 -3.802459,-2.7249804 -3.8136389,-2.7099041 -3.8136389,-2.7099041 -3.8225273,-2.6920919 -3.8263465,-2.6830109 -3.8294157,-2.6737201 -3.8315764,-2.6641751 -3.8329999,-2.6544237 -3.8346182,-2.6345773 -3.8346182,-2.6345773 -3.8321516,-2.609786 -3.8298917,-2.5977857 -3.8264,-2.5862597 -3.8213793,-2.5753225 -3.815086,-2.5648754 -3.8003783,-2.5447979 -3.8003783,-2.5447979 -3.7767294,-2.5267648 -3.764365,-2.5189242 -3.7513568,-2.5124859 -3.7376553,-2.5075576 -3.7234231,-2.5037852 -3.6940741,-2.4981668 -3.6940741,-2.4981668 -3.7149148,-2.487125 -3.7246581,-2.4805324 -3.7340362,-2.4733617 -3.7340362,-2.4733617 -3.749254,-2.4579782 -3.763651,-2.4419096 -3.7767491,-2.4247568 -3.7891012,-2.4069815 -3.8763874,-2.2710987 -3.7931681,-2.270906 -3.726761,-2.374777 -3.726761,-2.374777 -3.7035592,-2.4096966 -3.6788525,-2.4435613 -3.6788525,-2.4435613 -3.6712734,-2.4528119 -3.6632533,-2.4616052 -3.6544183,-2.4695535 -3.6450099,-2.4769072 -3.6450099,-2.4769072 -3.6305472,-2.484801 -3.6149656,-2.4901392 -3.6149656,-2.4901392 -3.5966056,-2.4921337 -3.578125,-2.4924414 -3.5013859,-2.4922637 -3.5019,-2.2702316 -3.4357338,-2.2700784 -3.4345761,-2.770077z M-3.6434767,-2.5498916 L-3.6434767,-2.5498916 -3.6614851,-2.5502878 -3.6793538,-2.5516609 -3.6969651,-2.5548341 -3.7143966,-2.5592646 -3.7143966,-2.5592646 -3.7257981,-2.5646229 -3.7362928,-2.5711385 -3.7452322,-2.5796387 -3.7532083,-2.5893682 -3.7532083,-2.5893682 -3.7587683,-2.5999706 -3.7630999,-2.6109319 -3.7653733,-2.6224943 -3.7664054,-2.6344194 -3.7664054,-2.6344194 -3.7643996,-2.6510101 -3.7626325,-2.6589621 -3.7599481,-2.6665021 -3.7561346,-2.6735348 -3.7513902,-2.6801493 -3.7403496,-2.6926811 -3.7403496,-2.6926811 -3.721631,-2.7035579 -3.7119706,-2.7080083 -3.701954,-2.7112896 -3.6915707,-2.7133675 -3.6809094,-2.7145332 -3.6591235,-2.7153444 -3.5008702,-2.714978 -3.5012532,-2.5495623 -3.6434767,-2.5498916z" transform="matrix(1,0,0,-1,11.075,6.3296138)" fill="rgb(116,116,116)" fill-rule="nonzero" shaper:cutDepth="0.05cm" stroke-linecap="round" stroke-linejoin="round" /><path d="M-3.9069337,-2.4829708 L-4.0955414,-2.4834075 -4.0956843,-2.421675 -3.9070767,-2.4212383 -3.9069337,-2.4829708z" transform="matrix(1,0,0,-1,11.075,6.3296138)" fill="rgb(116,116,116)" fill-rule="nonzero" shaper:cutDepth="0.05cm" stroke-linecap="round" stroke-linejoin="round" /><path d="M-4.598625,-2.7727723 L-4.9601519,-2.7736094 -4.9602885,-2.7146055 -4.6649278,-2.7139216 -4.6652824,-2.5607842 -4.9418849,-2.5614247 -4.9420207,-2.5027618 -4.6654182,-2.5021213 -4.6658123,-2.3319308 -4.9727692,-2.3326415 -4.9729058,-2.2736376 -4.5997827,-2.2727736 -4.598625,-2.7727723z" transform="matrix(1,0,0,-1,11.075,6.3296138)" fill="rgb(116,116,116)" fill-rule="nonzero" shaper:cutDepth="0.05cm" stroke-linecap="round" stroke-linejoin="round" /><path d="M-5.6949386,-2.7163065 L-5.5302052,-2.7159251 -5.5300685,-2.774929 -5.926384,-2.7758466 -5.9265206,-2.7168427 -5.7611053,-2.7164597 -5.7621264,-2.275465 -5.6959597,-2.2753118 -5.6949386,-2.7163065z" transform="matrix(1,0,0,-1,11.075,6.3296138)" fill="rgb(116,116,116)" fill-rule="nonzero" shaper:cutDepth="0.05cm" stroke-linecap="round" stroke-linejoin="round" /><path d="M-6.524253,-2.489031 L-6.3308848,-2.7767832 -6.4113757,-2.7769696 -6.5102924,-2.6264479 -6.5102924,-2.6264479 -6.5364878,-2.5846305 -6.5613066,-2.5419819 -6.5613066,-2.5419819 -6.5878643,-2.5865961 -6.6156721,-2.6304436 -6.7121933,-2.7776661 -6.7892738,-2.7778446 -6.5904197,-2.4891842 -6.5909101,-2.277384 -6.5247434,-2.2772308 -6.524253,-2.489031z" transform="matrix(1,0,0,-1,11.075,6.3296138)" fill="rgb(116,116,116)" fill-rule="nonzero" shaper:cutDepth="0.05cm" stroke-linecap="round" stroke-linejoin="round" /><path d="M-7.2360672,-2.7788791 L-7.303939,-2.7790363 -7.5674663,-2.3870806 -7.5665573,-2.7796444 -7.6299946,-2.7797913 -7.6311523,-2.2797926 -7.5632814,-2.2796354 -7.2997524,-2.6719321 -7.3006622,-2.2790274 -7.2372249,-2.2788805 -7.2360672,-2.7788791z" transform="matrix(1,0,0,-1,11.075,6.3296138)" fill="rgb(116,116,116)" fill-rule="nonzero" shaper:cutDepth="0.05cm" stroke-linecap="round" stroke-linejoin="round" /><path d="M-8.5426659,-2.4937045 L-8.3492977,-2.7814568 -8.4297886,-2.7816431 -8.5287053,-2.6311214 -8.5287053,-2.6311214 -8.5549007,-2.589304 -8.5797195,-2.5466554 -8.5797195,-2.5466554 -8.6062772,-2.5912696 -8.634085,-2.6351171 -8.7306062,-2.7823397 -8.8076867,-2.7825181 -8.6088326,-2.4938577 -8.609323,-2.2820575 -8.5431563,-2.2819043 -8.5426659,-2.4937045z" transform="matrix(1,0,0,-1,11.075,6.3296138)" fill="rgb(116,116,116)" fill-rule="nonzero" shaper:cutDepth="0.05cm" stroke-linecap="round" stroke-linejoin="round" /><path d="M-9.7951728,-2.4433985 L-9.7951728,-2.4433985 -9.7835163,-2.4079332 -9.7765329,-2.3909071 -9.7681633,-2.3747288 -9.7580253,-2.3596322 -9.7463484,-2.3454769 -9.7336445,-2.3319497 -9.7204271,-2.3187366 -9.7204271,-2.3187366 -9.6900834,-2.3000876 -9.6744516,-2.2921478 -9.6582678,-2.2858691 -9.6414353,-2.2815432 -9.6240879,-2.2787672 -9.5885347,-2.2757982 -9.5885347,-2.2757982 -9.5539536,-2.2775149 -9.5369299,-2.2794075 -9.5202265,-2.2825412 -9.5039371,-2.2872797 -9.4880201,-2.2934611 -9.4568084,-2.3082354 -9.4568084,-2.3082354 -9.4325162,-2.3279985 -9.4212368,-2.3385895 -9.4109969,-2.3500319 -9.4019846,-2.3624793 -9.3939492,-2.3757267 -9.3795067,-2.4035547 -9.3795067,-2.4035547 -9.3682019,-2.4361173 -9.3633526,-2.4525591 -9.359467,-2.4691935 -9.3567415,-2.4860597 -9.3549522,-2.5031131 -9.3529341,-2.5375316 -9.3529341,-2.5375316 -9.3547501,-2.5727936 -9.356569,-2.5902227 -9.3594811,-2.6074096 -9.3637826,-2.6242888 -9.3692848,-2.6409019 -9.3822916,-2.6736845 -9.3822916,-2.6736845 -9.3988308,-2.700276 -9.4078843,-2.7128186 -9.4178786,-2.7244574 -9.4290366,-2.7349784 -9.4411593,-2.7445726 -9.4670125,-2.7622165 -9.4670125,-2.7622165 -9.4959857,-2.775241 -9.5107069,-2.7808302 -9.5257098,-2.7853115 -9.5410523,-2.7884568 -9.5566693,-2.790522 -9.5883608,-2.7928523 -9.5883608,-2.7928523 -9.6221087,-2.790445 -9.6386226,-2.7880725 -9.6547045,-2.7842975 -9.6702386,-2.7787441 -9.6853016,-2.7716613 -9.714642,-2.7549454 -9.714642,-2.7549454 -9.7387153,-2.7323052 -9.7496705,-2.7202554 -9.7593282,-2.7073301 -9.7674572,-2.6933731 -9.7743709,-2.6785962 -9.7861729,-2.6476755 -9.721066,-2.6321769 -9.721066,-2.6321769 -9.7125172,-2.6547216 -9.7075808,-2.6655586 -9.7018501,-2.6758733 -9.6950873,-2.6855094 -9.6873842,-2.6945271 -9.6704042,-2.7115277 -9.6704042,-2.7115277 -9.6510543,-2.7225059 -9.6411189,-2.7271437 -9.6308712,-2.730761 -9.6202641,-2.7332038 -9.6093751,-2.7347253 -9.5871272,-2.7362326 -9.5871272,-2.7362326 -9.5614764,-2.7344361 -9.5489038,-2.7326878 -9.5366346,-2.7299195 -9.524752,-2.7258517 -9.5132048,-2.720656 -9.4906701,-2.7083831 -9.4906701,-2.7083831 -9.4730152,-2.6927798 -9.4648989,-2.6844601 -9.4576362,-2.6755188 -9.4514053,-2.6658258 -9.4460104,-2.655524 -9.4366136,-2.6339057 -9.4366136,-2.6339057 -9.4300339,-2.6103752 -9.4249368,-2.5866052 -9.4223042,-2.562437 -9.4211466,-2.5380307 -9.4211466,-2.5380307 -9.4223395,-2.5095586 -9.4235058,-2.495421 -9.425356,-2.4814017 -9.4280804,-2.4675335 -9.4315691,-2.4537974 -9.4398222,-2.4265456 -9.4398222,-2.4265456 -9.4502932,-2.4054718 -9.4562073,-2.3954978 -9.4629358,-2.3861993 -9.4706861,-2.3777485 -9.4792999,-2.3700139 -9.4979668,-2.3557387 -9.4979668,-2.3557387 -9.518101,-2.3458592 -9.5283574,-2.3416089 -9.538841,-2.3381858 -9.5496023,-2.3357742 -9.5605908,-2.3341903 -9.5829467,-2.332402 -9.5829467,-2.332402 -9.6084768,-2.3346948 -9.6209052,-2.3368062 -9.6329295,-2.3400758 -9.6444473,-2.3447972 -9.6555376,-2.3507439 -9.6770056,-2.3646799 -9.6770056,-2.3646799 -9.6956331,-2.3853396 -9.703934,-2.3962371 -9.7110221,-2.4078145 -9.7167454,-2.420157 -9.7214086,-2.4330937 -9.7289683,-2.4599573 -9.7951728,-2.4433985z" transform="matrix(1,0,0,-1,11.075,6.3296138)" fill="rgb(116,116,116)" fill-rule="nonzero" shaper:cutDepth="0.05cm" stroke-linecap="round" stroke-linejoin="round" /><path d="M-9.8822918,-2.6741602 L-9.8820352,-2.7850057 -9.9580924,-2.7851818 -9.9583491,-2.6743363 -9.9412272,-2.4092891 -9.9016632,-2.4091975 -9.8822918,-2.6741602z" transform="matrix(1,0,0,-1,11.075,6.3296138)" fill="rgb(116,116,116)" fill-rule="nonzero" shaper:cutDepth="0.05cm" stroke-linecap="round" stroke-linejoin="round" /><path d="M-8.866349,-2.782654 L-8.9342209,-2.7828111 -9.1977481,-2.3908555 -9.1968392,-2.7834192 -9.2602765,-2.7835661 -9.2614342,-2.2835674 -9.1935633,-2.2834103 -8.9300343,-2.675707 -8.930944,-2.2828022 -8.8675067,-2.2826553 -8.866349,-2.782654z" transform="matrix(1,0,0,-1,11.075,6.3296138)" fill="rgb(116,116,116)" fill-rule="nonzero" shaper:cutDepth="0.05cm" stroke-linecap="round" stroke-linejoin="round" /><path d="M-7.9759245,-2.4466896 L-7.9759245,-2.4466896 -7.9786416,-2.4304333 -7.982626,-2.4146117 -7.988853,-2.3995592 -7.9965313,-2.3850045 -7.9965313,-2.3850045 -8.0072419,-2.3728425 -8.0129436,-2.3672048 -8.0190604,-2.3620981 -8.032594,-2.3535483 -8.0470982,-2.3462402 -8.0470982,-2.3462402 -8.0657658,-2.3398873 -8.0847278,-2.3350642 -8.1041624,-2.3326959 -8.1238713,-2.3317522 -8.1238713,-2.3317522 -8.1409463,-2.3325008 -8.1578267,-2.3343575 -8.1743678,-2.3381473 -8.1906938,-2.3431621 -8.1906938,-2.3431621 -8.2029604,-2.3487594 -8.2144254,-2.35545 -8.2244711,-2.3640763 -8.2335971,-2.3739571 -8.2335971,-2.3739571 -8.2395398,-2.3839255 -8.2441937,-2.394317 -8.2466703,-2.4054231 -8.2478217,-2.4169643 -8.2478217,-2.4169643 -8.2467996,-2.4280065 -8.2444777,-2.4386078 -8.2399535,-2.4484621 -8.2340847,-2.4578604 -8.2340847,-2.4578604 -8.2242743,-2.4674131 -8.2135987,-2.475687 -8.2016477,-2.4820763 -8.188995,-2.4874286 -8.188995,-2.4874286 -8.1669675,-2.4942991 -8.1447784,-2.5005867 -8.0999223,-2.511438 -8.0999223,-2.511438 -8.0751952,-2.5174969 -8.0507477,-2.5243918 -8.0268336,-2.5328808 -8.0033285,-2.5425923 -8.0033285,-2.5425923 -7.9878426,-2.5517883 -7.9804397,-2.5567752 -7.973445,-2.5622286 -7.9669716,-2.5682779 -7.960953,-2.5748471 -7.9496743,-2.5888529 -7.9496743,-2.5888529 -7.9422203,-2.6035778 -7.939021,-2.6110896 -7.936455,-2.6187806 -7.9346535,-2.6266881 -7.9334704,-2.6347705 -7.9321349,-2.6512272 -7.9321349,-2.6512272 -7.9338278,-2.6699823 -7.9352984,-2.6791724 -7.9375182,-2.6881375 -7.940645,-2.6968301 -7.9445075,-2.7053019 -7.9534586,-2.721877 -7.9534586,-2.721877 -7.9663985,-2.7378003 -7.9733437,-2.7451761 -7.9808591,-2.7518491 -7.9890461,-2.7576941 -7.9977668,-2.7628811 -8.0160979,-2.7721585 -8.0160979,-2.7721585 -8.0384225,-2.7796188 -8.0496899,-2.7828003 -8.0610833,-2.7853235 -8.0726255,-2.7870699 -8.0842861,-2.7881981 -8.1078045,-2.7894242 -8.1078045,-2.7894242 -8.1329185,-2.7883348 -8.1453714,-2.7872343 -8.1576992,-2.785467 -8.1698681,-2.7828511 -8.1818993,-2.7795006 -8.2057322,-2.7715745 -8.2057322,-2.7715745 -8.2248828,-2.7618955 -8.2339986,-2.7564855 -8.242563,-2.7503907 -8.2504365,-2.7434379 -8.2577274,-2.7357615 -8.2713377,-2.7192024 -8.2713377,-2.7192024 -8.2812949,-2.7007142 -8.2856234,-2.6912644 -8.2891717,-2.6815676 -8.2917814,-2.6715738 -8.2936337,-2.6613402 -8.2960762,-2.6404737 -8.2326499,-2.6355519 -8.2326499,-2.6355519 -8.2287913,-2.6558974 -8.2260645,-2.6656682 -8.2223808,-2.6749566 -8.2174699,-2.6836265 -8.2114792,-2.691752 -8.1976951,-2.7070946 -8.1976951,-2.7070946 -8.1775152,-2.718409 -8.1671312,-2.7230759 -8.1563976,-2.7265652 -8.1452941,-2.7288087 -8.1339086,-2.7301028 -8.110668,-2.7311087 -8.110668,-2.7311087 -8.0874298,-2.7302886 -8.0760191,-2.7291353 -8.0648583,-2.7270901 -8.054028,-2.7238656 -8.0435234,-2.7194792 -8.0230664,-2.7087366 -8.0230664,-2.7087366 -8.0119407,-2.6976844 -8.007099,-2.6917957 -8.0031228,-2.6854718 -8.0002367,-2.6785998 -7.9982775,-2.6712617 -7.9959042,-2.6558086 -7.9959042,-2.6558086 -7.9973986,-2.6432306 -7.99872,-2.6371963 -8.0007305,-2.6314678 -8.0035908,-2.6261164 -8.0071531,-2.6210764 -8.0154475,-2.6115155 -8.0154475,-2.6115155 -8.0389477,-2.5989684 -8.0510096,-2.5934977 -8.0634035,-2.5888822 -8.0889765,-2.5816731 -8.1151205,-2.5759344 -8.1151205,-2.5759344 -8.1433137,-2.5696453 -8.1712852,-2.5626022 -8.1988305,-2.5541098 -8.2260392,-2.5444722 -8.2260392,-2.5444722 -8.244602,-2.5347234 -8.2534896,-2.5293598 -8.2619047,-2.5234092 -8.2697121,-2.5167035 -8.2769809,-2.5093288 -8.2906192,-2.493462 -8.2906192,-2.493462 -8.2996146,-2.4768626 -8.3034621,-2.4683682 -8.3065294,-2.4596402 -8.3086653,-2.4506333 -8.3100544,-2.4414028 -8.3115878,-2.422569 -8.3115878,-2.422569 -8.3097481,-2.4025699 -8.3081683,-2.3927671 -8.3057967,-2.3832006 -8.3024722,-2.3739182 -8.298379,-2.3648651 -8.2889114,-2.3471411 -8.2889114,-2.3471411 -8.2752526,-2.3301062 -8.2679403,-2.3221595 -8.2600487,-2.3148975 -8.2514738,-2.3084432 -8.2423555,-2.3026312 -8.2232132,-2.2920776 -8.2232132,-2.2920776 -8.1999314,-2.2835544 -8.188159,-2.2799238 -8.1762288,-2.2770501 -8.1641131,-2.2750666 -8.1518501,-2.2737899 -8.1270785,-2.2724143 -8.1270785,-2.2724143 -8.0978947,-2.2734264 -8.0834149,-2.2745577 -8.0690697,-2.2764394 -8.0548986,-2.279292 -8.0408843,-2.2830184 -8.0131176,-2.2919322 -8.0131176,-2.2919322 -7.9920823,-2.3030735 -7.982073,-2.3092612 -7.9726738,-2.3161894 -7.9640294,-2.3240337 -7.9560107,-2.3326374 -7.9410161,-2.3511105 -7.9410161,-2.3511105 -7.9297772,-2.3722616 -7.9249095,-2.3830685 -7.9209439,-2.3941529 -7.9180648,-2.4055717 -7.9160632,-2.4172605 -7.9135221,-2.441088 -7.9759245,-2.4466896z" transform="matrix(1,0,0,-1,11.075,6.3296138)" fill="rgb(116,116,116)" fill-rule="nonzero" shaper:cutDepth="0.05cm" stroke-linecap="round" stroke-linejoin="round" /><path d="M-7.0539387,-2.7784574 L-7.1201054,-2.7786106 -7.1212632,-2.278612 -7.0550965,-2.2784588 -7.0539387,-2.7784574z" transform="matrix(1,0,0,-1,11.075,6.3296138)" fill="rgb(116,116,116)" fill-rule="nonzero" shaper:cutDepth="0.05cm" stroke-linecap="round" stroke-linejoin="round" /><path d="M-5.9915274,-2.7759975 L-6.0576932,-2.7761507 -6.0587143,-2.3351559 -6.3049618,-2.3357261 -6.3050985,-2.2767222 -5.9926851,-2.2759988 -5.9915274,-2.7759975z" transform="matrix(1,0,0,-1,11.075,6.3296138)" fill="rgb(116,116,116)" fill-rule="nonzero" shaper:cutDepth="0.05cm" stroke-linecap="round" stroke-linejoin="round" /><path d="M-5.4868623,-2.4334229 L-5.4868623,-2.4334229 -5.4752064,-2.3979573 -5.4682231,-2.3809311 -5.4598536,-2.3647528 -5.4497156,-2.3496562 -5.4380385,-2.335501 -5.4253343,-2.3219739 -5.4121167,-2.308761 -5.4121167,-2.308761 -5.3817727,-2.2901121 -5.3661407,-2.2821723 -5.3499569,-2.2758936 -5.3331242,-2.2715677 -5.3157767,-2.2687916 -5.2802234,-2.2658226 -5.2802234,-2.2658226 -5.2456423,-2.2675393 -5.2286186,-2.2694319 -5.2119151,-2.2725655 -5.1956258,-2.2773041 -5.1797087,-2.2834854 -5.148497,-2.2982598 -5.148497,-2.2982598 -5.1242053,-2.318023 -5.112926,-2.3286142 -5.1026863,-2.3400565 -5.093674,-2.3525039 -5.0856387,-2.3657512 -5.0711963,-2.393579 -5.0711963,-2.393579 -5.0598915,-2.4261416 -5.0550422,-2.4425834 -5.0511566,-2.4592178 -5.0484311,-2.4760841 -5.0466418,-2.4931374 -5.0446237,-2.527556 -5.0446237,-2.527556 -5.0464391,-2.5628181 -5.0482578,-2.5802472 -5.0511697,-2.5974342 -5.0554714,-2.6143133 -5.0609738,-2.6309264 -5.0739812,-2.6637089 -5.0739812,-2.6637089 -5.0905199,-2.6903005 -5.0995733,-2.7028431 -5.1095675,-2.714482 -5.1207254,-2.7250029 -5.132848,-2.7345971 -5.1587011,-2.7522409 -5.1587011,-2.7522409 -5.1876743,-2.7652654 -5.2023956,-2.7708545 -5.2173984,-2.7753359 -5.2327409,-2.7784811 -5.2483579,-2.7805463 -5.2800495,-2.7828767 -5.2800495,-2.7828767 -5.3137976,-2.7804693 -5.3303116,-2.7780968 -5.3463935,-2.7743217 -5.3619277,-2.7687683 -5.3769909,-2.7616856 -5.4063316,-2.7449698 -5.4063316,-2.7449698 -5.4304049,-2.7223296 -5.4413601,-2.7102798 -5.4510178,-2.6973544 -5.4591468,-2.6833975 -5.4660605,-2.6686205 -5.4778625,-2.6376999 -5.4127547,-2.6222013 -5.4127547,-2.6222013 -5.4042058,-2.6447457 -5.3992695,-2.6555827 -5.3935389,-2.6658974 -5.3867763,-2.6755335 -5.3790734,-2.6845513 -5.3620938,-2.7015521 -5.3620938,-2.7015521 -5.3427438,-2.71253 -5.3328083,-2.7171678 -5.3225606,-2.7207851 -5.3119536,-2.723228 -5.3010646,-2.7247495 -5.2788168,-2.726257 -5.2788168,-2.726257 -5.253166,-2.7244604 -5.2405934,-2.7227121 -5.2283242,-2.7199438 -5.2164416,-2.715876 -5.2048944,-2.7106803 -5.1823597,-2.6984074 -5.1823597,-2.6984074 -5.1647048,-2.6828041 -5.1565885,-2.6744845 -5.1493258,-2.6655431 -5.1430949,-2.6558502 -5.1377,-2.6455484 -5.1283032,-2.62393 -5.1283032,-2.62393 -5.121723,-2.6003996 -5.1166254,-2.5766296 -5.1139928,-2.5524615 -5.1128353,-2.528055 -5.1128353,-2.528055 -5.1140282,-2.4995829 -5.1151945,-2.4854454 -5.1170446,-2.471426 -5.119769,-2.4575578 -5.1232578,-2.4438217 -5.1315108,-2.41657 -5.1315108,-2.41657 -5.1419819,-2.3954959 -5.1478961,-2.3855219 -5.1546247,-2.3762234 -5.1623751,-2.3677726 -5.1709891,-2.360038 -5.1896564,-2.3457631 -5.1896564,-2.3457631 -5.2097903,-2.3358835 -5.2200466,-2.3316331 -5.2305301,-2.3282101 -5.2412912,-2.3257985 -5.2522797,-2.3242146 -5.2746354,-2.3224263 -5.2746354,-2.3224263 -5.3001655,-2.3247191 -5.3125938,-2.3268306 -5.3246181,-2.3301002 -5.3361359,-2.3348216 -5.3472263,-2.3407683 -5.3686943,-2.3547042 -5.3686943,-2.3547042 -5.3873222,-2.3753636 -5.3956233,-2.3862611 -5.4027115,-2.3978385 -5.4084347,-2.410181 -5.4130977,-2.4231178 -5.420657,-2.4499817 -5.4868623,-2.4334229z" transform="matrix(1,0,0,-1,11.075,6.3296138)" fill="rgb(116,116,116)" fill-rule="nonzero" shaper:cutDepth="0.05cm" stroke-linecap="round" stroke-linejoin="round" /><path d="M-4.1740017,-2.7717891 L-4.511313,-2.7725701 -4.5114496,-2.7135662 -4.2403045,-2.7129384 -4.240663,-2.5580957 -4.4753144,-2.558639 -4.4754511,-2.4996351 -4.2407996,-2.4990918 -4.2413256,-2.2719437 -4.1751594,-2.2717904 -4.1740017,-2.7717891z" transform="matrix(1,0,0,-1,11.075,6.3296138)" fill="rgb(116,116,116)" fill-rule="nonzero" shaper:cutDepth="0.05cm" stroke-linecap="round" stroke-linejoin="round" /><path d="M-9.8857595,-2.3549313 L-9.9563588,-2.3550948 -9.9565207,-2.2851768 -9.8859213,-2.2850134 -9.8857595,-2.3549313z" transform="matrix(1,0,0,-1,11.075,6.3296138)" fill="rgb(116,116,116)" fill-rule="nonzero" shaper:cutDepth="0.05cm" stroke-linecap="round" stroke-linejoin="round" /><path d="M-2.9301438,-2.768909 L-3.1518348,-2.7694223 -3.1518348,-2.7694223 -3.1776815,-2.7690338 -3.2033148,-2.7671729 -3.2159855,-2.7652356 -3.228551,-2.7625728 -3.2535035,-2.7560152 -3.2535035,-2.7560152 -3.2702037,-2.7474857 -3.2780742,-2.7426522 -3.2853692,-2.7371362 -3.2919749,-2.7308028 -3.2980266,-2.7238122 -3.3092066,-2.7087361 -3.3092066,-2.7087361 -3.318095,-2.6909239 -3.3219142,-2.6818429 -3.3249835,-2.6725521 -3.3271442,-2.6630071 -3.3285676,-2.6532558 -3.3301859,-2.6334093 -3.3301859,-2.6334093 -3.3277191,-2.6086181 -3.3254591,-2.5966178 -3.3219673,-2.5850919 -3.3169467,-2.5741547 -3.3106535,-2.5637075 -3.2959461,-2.5436299 -3.2959461,-2.5436299 -3.2722972,-2.5255967 -3.2599328,-2.5177561 -3.2469246,-2.5113177 -3.2332231,-2.5063894 -3.2189908,-2.5026171 -3.1896418,-2.4969989 -3.1896418,-2.4969989 -3.2104825,-2.485957 -3.2202258,-2.4793644 -3.229604,-2.4721937 -3.229604,-2.4721937 -3.2448216,-2.4568101 -3.2592184,-2.4407413 -3.2723166,-2.4235887 -3.2846689,-2.4058135 -3.3719551,-2.2699307 -3.2887358,-2.269738 -3.2223287,-2.373609 -3.2223287,-2.373609 -3.1991269,-2.4085287 -3.1744203,-2.4423933 -3.1744203,-2.4423933 -3.1668411,-2.4516439 -3.158821,-2.4604373 -3.149986,-2.4683855 -3.1405776,-2.4757393 -3.1405776,-2.4757393 -3.126115,-2.4836332 -3.1105334,-2.4889712 -3.1105334,-2.4889712 -3.0921733,-2.4909657 -3.0736927,-2.4912734 -2.9969536,-2.4910958 -2.9974677,-2.2690636 -2.9313015,-2.2689104 -2.9301438,-2.768909z M-3.1390444,-2.5487236 L-3.1390444,-2.5487236 -3.1570528,-2.5491198 -3.1749215,-2.550493 -3.1925328,-2.5536661 -3.2099643,-2.5580966 -3.2099643,-2.5580966 -3.2213658,-2.5634549 -3.2318605,-2.5699705 -3.2407999,-2.5784707 -3.2487761,-2.5882002 -3.2487761,-2.5882002 -3.2543361,-2.5988026 -3.2586676,-2.6097639 -3.260941,-2.6213263 -3.2619731,-2.6332514 -3.2619731,-2.6332514 -3.2599674,-2.6498421 -3.2582002,-2.6577941 -3.2555158,-2.6653341 -3.2517024,-2.6723668 -3.2469579,-2.6789813 -3.2359173,-2.6915132 -3.2359173,-2.6915132 -3.2171987,-2.7023898 -3.2075383,-2.7068402 -3.1975217,-2.7101215 -3.1871383,-2.7121994 -3.176477,-2.7133651 -3.1546912,-2.7141764 -2.9964379,-2.71381 -2.996821,-2.5483943 -3.1390444,-2.5487236z" transform="matrix(1,0,0,-1,11.075,6.3296138)" fill="rgb(116,116,116)" fill-rule="nonzero" shaper:cutDepth="0.05cm" stroke-linecap="round" stroke-linejoin="round" /><path d="M-1.9587957,-2.7666599 L-2.1474034,-2.7670966 -2.1474034,-2.7670966 -2.185543,-2.7663746 -2.2045307,-2.7647856 -2.2234717,-2.7624978 -2.2234717,-2.7624978 -2.2398204,-2.7589904 -2.2556951,-2.754253 -2.2707406,-2.7473643 -2.2852588,-2.7391074 -2.2852588,-2.7391074 -2.297461,-2.7289581 -2.3031775,-2.7235597 -2.3084325,-2.717773 -2.3174274,-2.7049244 -2.3252746,-2.6911099 -2.3252746,-2.6911099 -2.3318997,-2.674697 -2.3370049,-2.657935 -2.3396248,-2.6406021 -2.34078,-2.6229328 -2.34078,-2.6229328 -2.3378767,-2.5931773 -2.3352154,-2.5787549 -2.3311025,-2.5648788 -2.3251879,-2.5516808 -2.3177733,-2.5390475 -2.300444,-2.5147218 -2.300444,-2.5147218 -2.2840533,-2.503472 -2.2673842,-2.493046 -2.2501585,-2.4842673 -2.2412501,-2.4807526 -2.2321177,-2.4779007 -2.2132701,-2.4739219 -2.1938142,-2.471743 -2.1739529,-2.4707641 -2.1538888,-2.4703851 -2.025649,-2.4700882 -2.0261197,-2.2668145 -1.9599534,-2.2666613 -1.9587957,-2.7666599z M-2.1547754,-2.5293914 L-2.1547754,-2.5293914 -2.1790725,-2.5301588 -2.1909824,-2.5313541 -2.2026059,-2.5335234 -2.2138496,-2.5369839 -2.2247115,-2.5417433 -2.2457839,-2.5534767 -2.2457839,-2.5534767 -2.2576923,-2.5681423 -2.2627219,-2.5758562 -2.2666429,-2.5840268 -2.2692901,-2.5927222 -2.2709389,-2.6018291 -2.2725724,-2.6207285 -2.2725724,-2.6207285 -2.2714637,-2.6350095 -2.2704227,-2.6419999 -2.2687978,-2.6488102 -2.2664361,-2.6553934 -2.263446,-2.6617827 -2.2564181,-2.6742383 -2.2564181,-2.6742383 -2.2478272,-2.6842147 -2.2432213,-2.6887644 -2.2382428,-2.6927881 -2.2328065,-2.6961653 -2.2269935,-2.6990105 -2.2147398,-2.7038144 -2.2147398,-2.7038144 -2.1994048,-2.7061156 -2.1840044,-2.7076179 -2.1529974,-2.7081054 -2.0250986,-2.7078092 -2.0255124,-2.5290921 -2.1547754,-2.5293914z" transform="matrix(1,0,0,-1,11.075,6.3296138)" fill="rgb(116,116,116)" fill-rule="nonzero" shaper:cutDepth="0.05cm" stroke-linecap="round" stroke-linejoin="round" /><path d="M-0.7163026,-2.763783 L-0.7841742,-2.7639402 -1.0477017,-2.3719845 -1.0467927,-2.7645482 -1.1102305,-2.7646951 -1.1113882,-2.2646965 -1.0435168,-2.2645393 -0.7799883,-2.656836 -0.7808981,-2.2639312 -0.7174603,-2.2637844 -0.7163026,-2.763783z" transform="matrix(1,0,0,-1,11.075,6.3296138)" fill="rgb(116,116,116)" fill-rule="nonzero" shaper:cutDepth="0.05cm" stroke-linecap="round" stroke-linejoin="round" /><path d="M-0.0205337,-2.762172 L-0.0866999,-2.7623252 -0.0871753,-2.5570052 -0.3470654,-2.5576069 -0.34659,-2.762927 -0.4127562,-2.7630802 -0.413914,-2.2630815 -0.3477477,-2.2629283 -0.347202,-2.498603 -0.0873119,-2.4980012 -0.0878576,-2.2623265 -0.0216914,-2.2621733 -0.0205337,-2.762172z" transform="matrix(1,0,0,-1,11.075,6.3296138)" fill="rgb(116,116,116)" fill-rule="nonzero" shaper:cutDepth="0.05cm" stroke-linecap="round" stroke-linejoin="round" /><path d="M0.7325487,-2.4722283 L0.9259169,-2.7599806 0.845426,-2.7601669 0.7465095,-2.6096452 0.7465095,-2.6096452 0.7203141,-2.5678278 0.6954953,-2.5251792 0.6954953,-2.5251792 0.6689377,-2.5697934 0.6411298,-2.6136409 0.5446081,-2.7608634 0.4675279,-2.7610419 0.6663825,-2.4723815 0.6658921,-2.2605813 0.7320583,-2.2604281 0.7325487,-2.4722283z" transform="matrix(1,0,0,-1,11.075,6.3296138)" fill="rgb(116,116,116)" fill-rule="nonzero" shaper:cutDepth="0.05cm" stroke-linecap="round" stroke-linejoin="round" /><path d="M1.8430358,-2.757857 L1.4815089,-2.7586941 1.4813722,-2.6996902 1.776733,-2.6990063 1.7763784,-2.5458689 1.499776,-2.5465094 1.4996402,-2.4878465 1.7762426,-2.4872061 1.7758485,-2.3170155 1.4688916,-2.3177262 1.468755,-2.2587223 1.8418781,-2.2578584 1.8430358,-2.757857z" transform="matrix(1,0,0,-1,11.075,6.3296138)" fill="rgb(116,116,116)" fill-rule="nonzero" shaper:cutDepth="0.05cm" stroke-linecap="round" stroke-linejoin="round" /><path d="M2.7748205,-2.7556995 L2.4132935,-2.7565366 2.4131569,-2.6975327 2.7085176,-2.6968488 2.708163,-2.5437114 2.4315608,-2.5443519 2.431425,-2.485689 2.7080272,-2.4850486 2.7076331,-2.314858 2.4006762,-2.3155687 2.4005396,-2.2565648 2.7736628,-2.2557009 2.7748205,-2.7556995z" transform="matrix(1,0,0,-1,11.075,6.3296138)" fill="rgb(116,116,116)" fill-rule="nonzero" shaper:cutDepth="0.05cm" stroke-linecap="round" stroke-linejoin="round" /><path d="M-10.9094065,5.2084334 a0.3,0.3 0 1,0 0.6,0 a0.3,0.3 0 1,0 -0.6,0z" transform="matrix(1,0,0,-1,11.075,6.3296138)" fill="rgb(116,116,116)" fill-rule="nonzero" shaper:cutDepth="0.05cm" stroke-linecap="round" stroke-linejoin="round" /><path d="M10.275,-5.2915277 a0.3,0.3 0 1,0 0.6,0 a0.3,0.3 0 1,0 -0.6,0z" transform="matrix(1,0,0,-1,11.075,6.3296138)" fill="rgb(116,116,116)" fill-rule="nonzero" shaper:cutDepth="0.05cm" stroke-linecap="round" stroke-linejoin="round" /><path d="M10.275,3.5813023 a0.3,0.3 0 1,0 0.6,0 a0.3,0.3 0 1,0 -0.6,0z" transform="matrix(1,0,0,-1,11.075,6.3296138)" fill="rgb(116,116,116)" fill-rule="nonzero" shaper:cutDepth="0.05cm" stroke-linecap="round" stroke-linejoin="round" /><path d="M10.415,-5.2915277 a0.16,0.16 0 1,1 0.32,0 a0.16,0.16 0 1,1 -0.32,0z" transform="matrix(1,0,0,-1,11.075,6.3296138)" fill="rgb(255,255,255)" stroke="rgb(0,0,0)" stroke-width="0.0010cm" stroke-linecap="round" stroke-linejoin="round" shaper:cutDepth="0.3cm" /><path d="M10.415,3.5813023 a0.16,0.16 0 1,1 0.32,0 a0.16,0.16 0 1,1 -0.32,0z" transform="matrix(1,0,0,-1,11.075,6.3296138)" fill="rgb(255,255,255)" stroke="rgb(0,0,0)" stroke-width="0.0010cm" stroke-linecap="round" stroke-linejoin="round" shaper:cutDepth="0.3cm" /><path d="M-10.7694065,5.2084334 a0.16,0.16 0 1,1 0.32,0 a0.16,0.16 0 1,1 -0.32,0z" transform="matrix(1,0,0,-1,11.075,6.3296138)" fill="rgb(255,255,255)" stroke="rgb(0,0,0)" stroke-width="0.0010cm" stroke-linecap="round" stroke-linejoin="round" shaper:cutDepth="0.3cm" /></svg>